<svg xmlns="http://www.w3.org/2000/svg" viewBox="0 0 400 400"><g fill-rule="evenodd"><path d="M108.615 68.63c-9.461 1.037-16.932 4.445-21.294 9.714l-1.244 1.502.182 2.308c2.056 26.112 45.121 50.236 113.433 63.543 3.977.775 7.685 1.506 8.239 1.625l1.008.216-2.546 3.392c-6.363 8.472-16.326 19.032-27.008 28.624-32.035 28.766-68.174 74.876-74.747 95.369-16.758 52.249.625 90.764 49.773 110.284 45.028 17.884 106.394 5.774 155.57-30.699 11.612-8.612 25.49-20.984 32.16-28.671 19.522-22.494 31.872-42.464 36.027-58.258.484-1.84.829-3.294.766-3.231-.062.062-1.575 3.054-3.362 6.648-15.84 31.854-30.146 48.79-57.225 67.746-25.621 17.935-51.958 26.806-79.55 26.793-26.366-.011-40.247-3.521-51.72-13.078-10.221-8.513-17.059-24.685-16.273-38.486 1.588-27.919 9.841-55.217 23.527-77.817 1.639-2.708 3.609-6.031 4.376-7.385 10.634-18.755 27.986-34.022 48.754-42.893 9.391-4.012 18.586-6.653 32.77-9.415 14.723-2.866 26.53-7.519 30.488-12.016 3.453-3.922 4.451-11.824 2.197-17.402l-1.07-2.649-6.334-5.85c-10.321-9.532-21.673-15.395-37.974-19.612-9.511-2.46-11.415-2.624-30.486-2.624h-17.044l-5.311-3.727c-28.115-19.726-52.209-33.457-70.543-40.203-7.837-2.884-25.973-4.796-35.539-3.748m29.859 25.97c6.985 1.053 16.705 3.988 30.603 9.242 13.975 5.283 36.548 22.347 39.403 29.788.708 1.844-14.642-1.402-27.865-5.893-28.763-9.77-46.921-19.532-50.887-27.359-2.574-5.079.39-7.038 8.746-5.778" fill="#fbfbfb"/><path d="M188.615 9.421c-23.966 1.716-41.511 5.268-57.778 11.695-50.67 20.02-86.526 56.028-107.661 108.115-12.442 30.663-17.03 72.25-10.978 99.516 12.388 55.81 37.672 97.649 73.494 121.614 3.323 2.223 7.78 5.024 7.994 5.024.085 0-.737-1.697-1.827-3.77-11.929-22.702-12.979-50.109-3.03-79.129.933-2.721 1.801-5.139 1.93-5.372.145-.264-.674-2.373-2.15-5.539-23.656-50.756-20.924-95.876 8.232-135.984 1.271-1.748 2.19-3.289 2.043-3.425-.148-.137-2.207-1.709-4.576-3.494-16.773-12.641-24.404-24.597-23.754-37.214.561-10.868 5.913-16.887 20.538-23.093 19.531-8.288 45.515-5.765 70.002 6.797l1.173.602 3.251-1.527c40.387-18.967 88.248-20.942 128.248-5.294 40.034 15.662 68.463 41.94 83.777 77.439 1.377 3.193 1.448 2.852.181-.867-21.697-63.64-83.061-114.45-150.104-124.287-10.469-1.537-30.091-2.446-39.005-1.807m-55.153 84.955c.55.069 1.45.069 2 0 .55-.068.1-.124-1-.124s-1.55.056-1 .124m-35.21 217.316c0 1.1.056 1.55.124 1 .069-.55.069-1.45 0-2-.068-.55-.124-.1-.124 1m126.594 53.448c.381.074 1.004.074 1.385 0 .381-.073.069-.133-.693-.133-.761 0-1.073.06-.692.133" fill="#fff"/><path d="M185.077.321c-39.354 3.117-70.473 14.157-100.462 35.641C34.953 71.54 4.742 124.441.474 183.302c-4.478 61.745 14.923 114.945 57.517 157.719 35.383 35.532 76.82 54.837 125.61 58.519 69.344 5.233 130.878-21.861 174.632-76.891 32.537-40.923 46.64-92.13 40.517-147.111-5.573-50.033-29.866-94.703-70.255-129.18C297.444 19.851 262.361 5.036 220.462.737c-5.677-.583-29.713-.865-35.385-.416m33.846 9.815c72.379 8.203 135.969 58.409 158.801 125.379 1.267 3.719 1.196 4.06-.181.867-15.314-35.499-43.743-61.777-83.777-77.439-40-15.648-87.861-13.673-128.248 5.294l-3.251 1.527-1.173-.602c-24.487-12.562-50.471-15.085-70.002-6.797-14.625 6.206-19.977 12.225-20.538 23.093-.65 12.617 6.981 24.573 23.754 37.214 2.369 1.785 4.428 3.357 4.576 3.494.147.136-.772 1.677-2.043 3.425-29.156 40.108-31.888 85.228-8.232 135.984 1.476 3.166 2.295 5.275 2.15 5.539-.129.233-.997 2.651-1.93 5.372-9.949 29.02-8.899 56.427 3.03 79.129 1.09 2.073 1.912 3.77 1.827 3.77-.214 0-4.671-2.801-7.994-5.024-35.822-23.965-61.106-65.804-73.494-121.614-6.052-27.266-1.464-68.853 10.978-99.516C44.311 77.144 80.167 41.136 130.837 21.116c16.267-6.427 33.812-9.979 57.778-11.695 5.024-.36 24.975.111 30.308.715m-88.308 59.207c9.476 1.424 10.939 1.822 19.385 5.276 16.232 6.637 39.51 20.242 64.149 37.491l5.995 4.198h17.042c20.43 0 24.176.415 35.231 3.904 14.714 4.644 23.807 9.681 33.166 18.374 7.604 7.062 8.611 8.825 8.646 15.127.068 12.6-8.981 17.991-40.537 24.15-33.285 6.497-59.669 24.387-74.847 50.752-1.023 1.777-3.186 5.433-4.806 8.125-16.047 26.658-26.654 69.014-22.197 88.645 5.742 25.293 21.984 37.524 52.62 39.621 40.004 2.738 69.566-6.985 104.923-34.509 19.175-14.927 31.778-31.084 45.597-58.454 2.252-4.461 4.095-8.015 4.095-7.897 0 3.818-6.088 18.346-11.544 27.546-14.257 24.045-34.752 46.269-58.802 63.764-14.241 10.36-28.975 18.635-43.808 24.604-40.501 16.299-81.342 17.7-113.633 3.898-47.422-20.269-63.482-58.73-46.192-110.629 1.228-3.688 2.1-5.386 6.923-13.483 15.709-26.376 40.223-55.606 67.211-80.138 11.451-10.41 20.248-19.73 26.877-28.477l2.799-3.693-3.762-.696c-28.536-5.281-63.066-15.635-79.38-23.803-24.703-12.367-38.496-26.59-39.502-40.731l-.176-2.462 1.148-1.457c6.815-8.656 23.217-12.076 43.379-9.046m.154 25.315c-4.493 1.846-.752 8.532 8 14.294 15.947 10.499 48.845 22.782 66.718 24.911 3.556.424 3.505.49 1.699-2.22-9.012-13.524-30.167-26.134-57.955-34.546-6.734-2.038-16.347-3.308-18.462-2.439" fill="#040404"/></g></svg>