<?xml version="1.0" standalone="no"?>
<!DOCTYPE svg PUBLIC "-//W3C//DTD SVG 20010904//EN"
 "http://www.w3.org/TR/2001/REC-SVG-20010904/DTD/svg10.dtd">
<svg version="1.0" xmlns="http://www.w3.org/2000/svg" viewBox="0 0 4096.000000 4096.000000" preserveAspectRatio="xMidYMid meet">
    <g transform="translate(0.000000,4096.000000) scale(0.100000,-0.100000)" fill="#000000" stroke="none">
        <path d="M19660 40950 c-1472 -65 -2811 -257 -4183 -601 -3888 -974 -7431
        -3095 -10142 -6073 -2396 -2633 -4065 -5831 -4839 -9271 -255 -1132 -402
        -2214 -477 -3490 -17 -293 -23 -1444 -10 -1792 116 -2997 843 -5829 2176
        -8468 1426 -2823 3482 -5273 6020 -7176 2880 -2160 6277 -3520 9835 -3938 933
        -110 1649 -147 2650 -138 681 7 892 15 1485 63 5645 448 10894 3277 14426
        7774 2547 3243 4051 7171 4319 11280 27 418 32 565 37 1155 8 885 -15 1442
        -93 2235 -504 5158 -2957 9929 -6871 13367 -2660 2336 -5867 3940 -9313 4657
        -1043 217 -1981 337 -3175 407 -237 14 -1582 20 -1845 9z m3535 -10553 c610
        -49 1019 -109 1471 -217 1805 -432 3017 -1471 3534 -3030 340 -1025 344 -2384
        9 -3366 -146 -431 -332 -774 -608 -1124 -106 -135 -373 -397 -531 -523 -230
        -184 -551 -391 -843 -547 l-118 -62 171 -69 c1053 -422 1799 -1089 2270 -2029
        281 -562 437 -1153 502 -1900 19 -220 16 -842 -6 -1065 -87 -917 -331 -1673
        -781 -2420 -277 -461 -503 -754 -855 -1106 -554 -556 -1164 -947 -1893 -1215
        -713 -263 -1740 -433 -2917 -484 -138 -6 -1979 -10 -4747 -10 l-4523 0 0 9595
        0 9595 4828 -3 c4412 -3 4845 -5 5037 -20z"/>
        <path d="M17160 24969 l0 -2120 2493 4 c1805 3 2526 7 2617 16 589 55 1029
        171 1419 372 363 188 567 388 727 714 139 283 199 559 211 965 25 891 -277
        1494 -907 1810 -285 143 -909 273 -1565 325 -359 29 -824 35 -2907 35 l-2088
        0 0 -2121z"/>
        <path d="M17160 17120 l0 -2561 2558 4 c2671 4 2605 3 2972 48 839 104 1405
        377 1800 870 366 457 547 1110 527 1894 -3 121 -13 272 -22 335 -105 762 -478
        1289 -1140 1611 -387 188 -790 280 -1495 340 -96 9 -858 13 -2667 16 l-2533 4
        0 -2561z"/>
    </g>
</svg>
