<?xml version="1.0" standalone="no"?>
<!DOCTYPE svg PUBLIC "-//W3C//DTD SVG 20010904//EN"
 "http://www.w3.org/TR/2001/REC-SVG-20010904/DTD/svg10.dtd">
<svg version="1.0" xmlns="http://www.w3.org/2000/svg"
 width="3200.000000pt" height="3200.000000pt" viewBox="0 0 3200.000000 3200.000000"
 preserveAspectRatio="xMidYMid meet">
<g transform="translate(0.000000,3200.000000) scale(0.100000,-0.100000)"
fill="#000000" stroke="none">
<path d="M15385 31994 c-33 -2 -154 -8 -270 -14 -3695 -192 -7228 -1687 -9980
-4225 -217 -200 -755 -741 -945 -950 -1547 -1703 -2667 -3610 -3381 -5755
-467 -1404 -729 -2828 -799 -4345 -13 -283 -13 -1126 0 -1410 149 -3252 1234
-6288 3174 -8885 1568 -2098 3676 -3813 6044 -4917 1743 -812 3605 -1301 5507
-1448 429 -33 539 -37 1091 -42 577 -6 872 2 1309 32 2347 165 4607 837 6660
1982 2200 1228 4102 2982 5510 5083 1515 2262 2425 4866 2645 7570 37 459 42
575 47 1150 7 703 -8 1114 -62 1690 -217 2311 -933 4543 -2098 6540 -1856
3181 -4749 5630 -8183 6928 -1355 512 -2816 844 -4259 967 -471 40 -650 47
-1300 50 -357 1 -677 1 -710 -1z m7652 -15353 l-1279 -6398 -3852 -1278
c-2118 -703 -3853 -1279 -3856 -1279 -3 -1 -1509 574 -3346 1278 l-3340 1278
82 417 c45 229 196 998 335 1709 l254 1292 1417 0 c1216 0 1418 -2 1418 -14 0
-8 -63 -323 -141 -701 -77 -378 -139 -689 -137 -690 6 -6 4032 -1528 4053
-1532 16 -3 4671 1519 4683 1532 3 3 642 3250 642 3261 0 2 -2605 4 -5790 4
-3184 0 -5790 3 -5790 7 0 9 529 2781 537 2811 l5 22 5804 0 c4910 0 5805 2
5810 14 11 29 352 1811 347 1819 -2 4 -2607 7 -5789 7 -3181 0 -5784 4 -5784
8 0 4 128 642 285 1416 157 775 285 1410 285 1412 0 2 3246 4 7214 4 l7213 0
-1280 -6399z"/>
</g>
</svg>
