<?xml version="1.0" standalone="no"?>
<!DOCTYPE svg PUBLIC "-//W3C//DTD SVG 20010904//EN"
 "http://www.w3.org/TR/2001/REC-SVG-20010904/DTD/svg10.dtd">
<svg version="1.0" xmlns="http://www.w3.org/2000/svg"
 width="500.000000pt" height="500.000000pt" viewBox="0 0 500.000000 500.000000"
 preserveAspectRatio="xMidYMid meet">
<g transform="translate(0.000000,500.000000) scale(0.100000,-0.100000)"
fill="#000000" stroke="none">
<path d="M2210 4993 c-94 -11 -265 -48 -374 -80 -67 -19 -144 -41 -173 -49
-29 -7 -104 -38 -168 -69 -64 -30 -119 -55 -124 -55 -5 0 -48 -25 -97 -55 -49
-30 -108 -64 -130 -75 -23 -12 -59 -36 -80 -54 -22 -18 -59 -46 -84 -62 -104
-67 -402 -364 -465 -463 -12 -20 -41 -58 -64 -86 -22 -27 -50 -68 -61 -90 -11
-22 -45 -80 -75 -129 -30 -49 -55 -92 -55 -97 0 -5 -25 -60 -55 -124 -31 -64
-62 -139 -69 -168 -8 -29 -30 -106 -49 -173 -75 -256 -82 -313 -82 -664 0
-351 7 -408 82 -664 19 -67 41 -144 49 -173 7 -29 38 -104 69 -168 30 -64 55
-119 55 -124 0 -4 24 -47 53 -94 28 -48 63 -107 77 -132 56 -101 258 -344 384
-462 48 -46 126 -113 174 -150 48 -37 105 -82 126 -100 22 -18 47 -33 56 -33
9 0 25 -8 36 -18 28 -26 161 -104 212 -124 24 -9 49 -21 55 -26 17 -14 196
-89 232 -97 17 -4 81 -23 144 -41 241 -73 338 -86 633 -92 276 -4 355 1 539
38 110 23 343 90 438 126 105 41 302 140 374 188 37 25 71 46 75 46 26 0 283
210 403 329 120 121 329 377 329 403 0 5 18 34 39 66 43 64 146 266 190 376
39 95 107 326 131 445 37 184 42 263 38 539 -5 293 -19 391 -89 622 -17 58
-37 128 -45 157 -12 48 -50 134 -141 320 -19 40 -55 102 -79 138 -24 36 -44
69 -44 73 0 17 -142 200 -244 315 -122 137 -389 364 -501 427 -25 14 -84 49
-132 78 -47 28 -90 52 -94 52 -5 0 -60 25 -124 55 -64 31 -139 62 -168 69 -29
8 -99 28 -157 45 -58 18 -161 44 -230 58 -116 24 -146 26 -415 28 -159 2 -306
1 -325 -2z m490 -2232 l0 -1238 -91 -17 c-205 -38 -304 -48 -514 -53 -301 -7
-439 13 -634 93 -273 113 -432 364 -448 705 -15 317 96 595 305 761 178 141
413 209 671 195 58 -3 120 -10 138 -16 17 -5 34 -7 37 -3 3 3 6 187 6 409 l0
403 265 0 265 0 0 -1239z m850 964 l0 -275 -265 0 -265 0 0 275 0 275 265 0
265 0 0 -275z m0 -1320 c0 -473 -4 -803 -11 -863 -34 -317 -131 -523 -315
-673 -74 -59 -206 -139 -232 -139 -11 0 -181 78 -447 205 l-49 24 49 21 c28
12 94 51 148 87 182 122 261 255 303 505 15 89 18 202 21 851 l4 747 265 0
264 0 0 -765z"/>
<path d="M1825 2750 c-114 -37 -202 -130 -241 -255 -24 -76 -29 -217 -10 -303
37 -176 146 -276 329 -302 65 -10 174 -7 235 6 l22 4 0 424 0 424 -44 11 c-71
18 -222 13 -291 -9z"/>
</g>
</svg>
