<?xml version="1.0" standalone="no"?>
<!DOCTYPE svg PUBLIC "-//W3C//DTD SVG 20010904//EN"
 "http://www.w3.org/TR/2001/REC-SVG-20010904/DTD/svg10.dtd">
<svg version="1.0" xmlns="http://www.w3.org/2000/svg"
 width="4096.000000pt" height="4012.000000pt" viewBox="0 0 4096.000000 4012.000000"
 preserveAspectRatio="xMidYMid meet">
<g transform="translate(0.000000,4012.000000) scale(0.100000,-0.100000)"
fill="#000000" stroke="none">
<path d="M19866 40109 c-1591 -46 -3230 -288 -4736 -699 -2459 -672 -4704
-1756 -6755 -3263 -1738 -1278 -3295 -2859 -4561 -4632 -1490 -2086 -2586
-4461 -3203 -6940 -330 -1328 -505 -2504 -592 -3990 -17 -287 -23 -1462 -10
-1798 66 -1648 296 -3156 717 -4699 1029 -3772 3151 -7212 6069 -9839 2043
-1840 4400 -3235 6984 -4135 253 -88 347 -106 566 -107 167 -1 271 13 390 50
151 48 265 114 374 217 126 121 219 287 268 482 l28 109 -2 680 c-3 931 -22
2977 -28 2983 -2 2 -98 -14 -212 -37 -741 -146 -1281 -198 -1967 -188 -474 7
-720 29 -1116 103 -913 171 -1699 537 -2345 1093 -366 315 -683 695 -937 1119
-88 148 -223 424 -277 567 -81 212 -105 271 -179 440 -338 774 -760 1436
-1251 1960 -263 282 -579 542 -827 682 -149 84 -439 310 -587 456 -320 318
-340 545 -60 686 126 63 306 103 552 122 173 14 343 -1 591 -51 1070 -215
2072 -982 2739 -2099 753 -1258 1729 -1972 2956 -2160 878 -135 1899 22 2876
440 l116 50 12 82 c44 293 127 652 212 914 216 672 540 1226 957 1640 l122
122 -42 5 c-24 3 -135 17 -248 31 -2787 344 -4808 1134 -6270 2451 -137 123
-442 429 -561 564 -1152 1298 -1849 3016 -2103 5180 -119 1012 -138 2161 -50
2940 78 697 256 1411 507 2045 346 871 826 1644 1480 2384 l65 74 -25 66 c-82
213 -182 554 -237 813 -150 698 -189 1499 -111 2258 71 683 236 1387 481 2056
42 115 78 217 81 227 3 9 15 19 27 22 84 19 127 25 246 36 389 33 953 -46
1545 -216 1053 -304 2225 -884 3565 -1766 l255 -167 240 64 c1495 401 3242
625 4880 625 1654 0 3337 -215 4898 -626 l239 -63 222 147 c659 440 1300 814
1921 1120 997 493 1854 774 2645 867 178 21 557 24 675 5 131 -21 155 -29 167
-59 54 -139 171 -474 224 -646 201 -649 318 -1276 364 -1951 14 -203 14 -735
0 -942 -44 -650 -186 -1331 -378 -1819 l-21 -51 101 -114 c1014 -1150 1651
-2490 1893 -3981 96 -591 127 -1141 107 -1865 -26 -912 -94 -1609 -228 -2340
-602 -3287 -2344 -5422 -5324 -6526 -1014 -375 -2230 -649 -3595 -808 -104
-12 -191 -23 -193 -24 -2 -2 62 -67 140 -146 79 -79 183 -193 232 -254 540
-676 876 -1597 981 -2690 37 -389 39 -576 24 -3295 -17 -3221 -17 -3175 0
-3270 45 -253 165 -470 334 -608 210 -170 509 -245 847 -213 172 17 198 23
415 98 2167 746 4250 1896 6065 3347 4318 3454 7067 8484 7625 13956 85 833
110 1409 102 2339 -5 613 -10 757 -37 1181 -194 2976 -1040 5887 -2473 8510
-1184 2168 -2790 4148 -4667 5755 -2314 1981 -4979 3399 -7897 4200 -1930 531
-3973 773 -6017 714z"/>
</g>
</svg>
