<?xml version="1.0" standalone="no"?>
<!DOCTYPE svg PUBLIC "-//W3C//DTD SVG 20010904//EN"
 "http://www.w3.org/TR/2001/REC-SVG-20010904/DTD/svg10.dtd">
<svg version="1.0" xmlns="http://www.w3.org/2000/svg" viewBox="0 0 3200.000000 3200.000000" preserveAspectRatio="xMidYMid meet">
    <g transform="translate(0.000000,3200.000000) scale(0.100000,-0.100000)" fill="#000000" stroke="none">
        <path d="M15385 31994 c-33 -2 -154 -8 -270 -14 -3695 -192 -7228 -1687 -9980
        -4225 -217 -200 -755 -741 -945 -950 -1547 -1703 -2667 -3610 -3381 -5755
        -467 -1404 -729 -2828 -799 -4345 -13 -283 -13 -1126 0 -1410 149 -3252 1234
        -6288 3174 -8885 1568 -2098 3676 -3813 6044 -4917 1743 -812 3605 -1301 5507
        -1448 429 -33 539 -37 1091 -42 577 -6 872 2 1309 32 2347 165 4607 837 6660
        1982 2200 1228 4102 2982 5510 5083 1515 2262 2425 4866 2645 7570 37 459 42
        575 47 1150 7 703 -8 1114 -62 1690 -217 2311 -933 4543 -2098 6540 -1856
        3181 -4749 5630 -8183 6928 -1355 512 -2816 844 -4259 967 -471 40 -650 47
        -1300 50 -357 1 -677 1 -710 -1z m8225 -8001 c2 -37 -1405 -15500 -1410
        -15506 -8 -9 -6192 -1756 -6225 -1759 -11 -1 -1414 394 -3117 877 -2642 749
        -3098 881 -3098 897 0 9 -308 3494 -685 7743 -377 4250 -685 7733 -685 7741 0
        12 1006 14 7610 14 4186 0 7610 -3 7610 -7z"/>
        <path d="M11230 20827 c0 -7 115 -1303 255 -2881 140 -1577 255 -2870 255
        -2872 0 -2 1477 -4 3281 -4 l3282 0 -6 -47 c-3 -27 -54 -579 -113 -1228 -58
        -649 -108 -1181 -109 -1183 -5 -6 -2091 -572 -2107 -572 -19 0 -2097 566
        -2104 573 -3 3 -32 319 -64 703 -33 385 -62 723 -65 752 l-6 52 -945 0 -944 0
        0 -28 c0 -36 220 -2955 223 -2958 1 -1 884 -247 1962 -548 l1960 -546 1938
        529 c1066 290 1942 532 1946 537 10 11 552 5874 545 5886 -3 4 -1565 8 -3472
        8 l-3467 0 -78 958 c-43 526 -78 963 -77 970 0 9 736 12 3644 12 l3645 0 6 53
        c6 55 155 1813 155 1834 0 11 -939 13 -4770 13 -3843 0 -4770 -2 -4770 -13z"/>
    </g>
</svg>
