<?xml version="1.0" standalone="no"?>
<!DOCTYPE svg PUBLIC "-//W3C//DTD SVG 20010904//EN"
 "http://www.w3.org/TR/2001/REC-SVG-20010904/DTD/svg10.dtd">
<svg version="1.0" xmlns="http://www.w3.org/2000/svg" viewBox="0 0 3200.000000 3200.000000" preserveAspectRatio="xMidYMid meet">
    <g transform="translate(0.000000,3200.000000) scale(0.100000,-0.100000)" fill="#000000" stroke="none">
        <path d="M15385 31994 c-33 -2 -154 -8 -270 -14 -3695 -192 -7228 -1687 -9980
        -4225 -217 -200 -755 -741 -945 -950 -1547 -1703 -2667 -3610 -3381 -5755
        -467 -1404 -729 -2828 -799 -4345 -13 -283 -13 -1126 0 -1410 149 -3252 1234
        -6288 3174 -8885 1568 -2098 3676 -3813 6044 -4917 1743 -812 3605 -1301 5507
        -1448 429 -33 539 -37 1091 -42 577 -6 872 2 1309 32 2347 165 4607 837 6660
        1982 2200 1228 4102 2982 5510 5083 1515 2262 2425 4866 2645 7570 37 459 42
        575 47 1150 7 703 -8 1114 -62 1690 -217 2311 -933 4543 -2098 6540 -1856
        3181 -4749 5630 -8183 6928 -1355 512 -2816 844 -4259 967 -471 40 -650 47
        -1300 50 -357 1 -677 1 -710 -1z m5465 -9604 c817 -31 1485 -143 2140 -360
        240 -79 379 -133 576 -221 l111 -50 -317 -1110 c-175 -610 -320 -1112 -323
        -1116 -3 -3 -59 18 -124 47 -605 270 -1272 441 -1963 502 -217 19 -714 16
        -870 -5 -467 -64 -817 -207 -1056 -430 -170 -159 -277 -341 -319 -543 -23
        -109 -21 -312 4 -429 82 -392 364 -677 972 -981 298 -149 635 -290 1189 -499
        375 -141 501 -192 705 -282 1146 -508 1883 -1133 2275 -1928 159 -323 246
        -607 299 -980 92 -643 23 -1312 -196 -1885 -369 -967 -1140 -1693 -2242 -2109
        -968 -366 -2213 -492 -3476 -350 -871 97 -1781 337 -2397 632 -115 54 -148 74
        -148 89 0 24 561 2260 569 2270 4 4 88 -30 186 -76 1366 -637 3034 -854 3955
        -516 507 186 814 524 895 988 21 116 21 352 0 460 -68 354 -262 616 -642 868
        -312 207 -674 370 -1363 616 -1136 404 -1964 885 -2540 1475 -341 347 -560
        678 -723 1088 -223 562 -275 1226 -145 1860 298 1451 1536 2522 3308 2859 544
        104 1047 139 1660 116z m-7063 -4352 c-3 -3046 -7 -4199 -15 -4298 -61 -713
        -141 -1146 -297 -1615 -194 -583 -454 -1027 -825 -1409 -270 -277 -525 -463
        -879 -640 -459 -230 -979 -371 -1613 -436 -755 -77 -1668 -26 -2383 135 -129
        29 -341 89 -385 108 l-26 12 72 515 c41 283 112 792 160 1131 l87 617 56 -20
        c94 -32 308 -85 477 -117 452 -87 915 -110 1284 -65 851 105 1316 595 1479
        1559 37 220 52 406 58 714 6 302 -11 5362 -23 7079 l-7 892 1392 0 1392 0 -4
        -4162z"/>
    </g>
</svg>
