<?xml version="1.0" standalone="no"?>
<!DOCTYPE svg PUBLIC "-//W3C//DTD SVG 20010904//EN"
 "http://www.w3.org/TR/2001/REC-SVG-20010904/DTD/svg10.dtd">
<svg version="1.0" xmlns="http://www.w3.org/2000/svg" viewBox="0 0 4096.000000 4096.000000" preserveAspectRatio="xMidYMid meet">
    <g transform="translate(0.000000,4096.000000) scale(0.100000,-0.100000)" fill="#000000" stroke="none">
        <path d="M19660 40950 c-1507 -67 -2873 -266 -4275 -625 -2605 -666 -5018
        -1824 -7195 -3454 -1257 -941 -2454 -2079 -3463 -3293 -1968 -2368 -3378
        -5139 -4116 -8093 -349 -1397 -541 -2747 -601 -4215 -21 -514 -11 -1470 20
        -2000 215 -3612 1355 -7049 3334 -10050 778 -1178 1631 -2225 2631 -3225 2719
        -2720 6126 -4613 9860 -5475 1265 -293 2525 -458 3879 -511 341 -13 1482 -7
        1771 10 1472 86 2660 263 3980 592 4287 1072 8152 3548 10946 7014 2638 3271
        4191 7227 4483 11415 36 512 41 684 41 1440 0 756 -5 928 -41 1440 -292 4186
        -1843 8140 -4479 11411 -913 1133 -1971 2191 -3104 3104 -3152 2539 -6947
        4077 -10966 4444 -227 21 -528 43 -860 62 -237 14 -1582 20 -1845 9z m-5810
        -12339 c104 -31 179 -73 245 -138 96 -94 309 -430 935 -1478 331 -555 1369
        -2290 2305 -3855 936 -1565 2018 -3374 2404 -4020 386 -646 704 -1176 705
        -1178 4 -3 1940 460 5483 1309 926 222 1683 407 1683 410 0 3 -41 64 -92 135
        -371 525 -710 1005 -1343 1904 -400 569 -766 1089 -813 1154 -47 66 -100 153
        -119 195 l-33 76 0 243 c0 259 2 273 52 319 28 26 166 91 260 122 67 22 730
        137 2513 435 1356 227 1284 218 1628 214 324 -4 332 -5 475 -101 163 -109 201
        -154 1387 -1622 280 -346 746 -920 1034 -1275 761 -935 855 -1051 879 -1091
        21 -35 22 -46 22 -308 l0 -271 -40 -44 c-73 -79 -2 -58 -1895 -560 -1253 -332
        -1556 -413 -1562 -420 -3 -3 356 -488 799 -1078 443 -590 1028 -1374 1300
        -1743 272 -368 560 -758 641 -867 166 -224 251 -359 273 -435 12 -42 15 -97
        12 -275 -3 -222 -3 -223 -30 -269 -26 -44 -61 -73 -168 -136 -47 -29 -389
        -161 -690 -268 -395 -140 -1350 -482 -3325 -1192 -2504 -900 -3430 -1231
        -3685 -1320 -569 -197 -997 -338 -1196 -395 l-219 -61 -336 -4 -336 -5 -67 31
        c-109 49 -197 114 -297 219 -100 104 -147 174 -376 547 -284 464 -378 624
        -633 1080 -145 259 -550 981 -900 1605 -350 624 -740 1318 -865 1543 -126 224
        -232 407 -237 407 -4 0 -563 -144 -1241 -319 -1990 -516 -3543 -915 -3843
        -988 -105 -25 -123 -26 -454 -30 -240 -3 -368 -1 -420 7 -364 58 -636 293
        -799 691 -21 52 -361 792 -756 1644 -1695 3663 -3627 7843 -4002 8660 -325
        707 -477 1057 -545 1255 -38 113 -76 215 -84 227 -11 18 -14 82 -14 313 l0
        290 46 90 c30 58 61 103 86 125 50 42 148 82 236 95 174 27 921 89 2312 195
        619 47 1314 101 1545 120 231 19 571 46 755 60 184 14 376 32 425 39 66 10
        200 13 495 12 389 -2 408 -3 480 -25z"/>
        <path d="M12866 27470 c-104 -10 -266 -23 -360 -29 -94 -7 -346 -27 -561 -46
        -214 -19 -500 -43 -635 -55 -135 -11 -454 -38 -710 -60 -256 -23 -667 -58
        -913 -79 -246 -21 -450 -41 -452 -43 -3 -2 144 -310 326 -684 1026 -2106 2259
        -4650 3134 -6464 293 -608 642 -1330 775 -1605 133 -275 395 -819 582 -1210
        187 -390 342 -711 343 -713 1 -1 227 51 501 117 868 209 1187 285 2527 602
        1525 360 1440 340 1450 349 4 3 -397 704 -891 1556 -493 852 -1775 3064 -2847
        4916 -1072 1852 -1965 3389 -1985 3415 -43 58 -33 57 -284 33z"/>
        <path d="M29065 23219 c-269 -49 -852 -155 -1295 -235 -443 -80 -813 -147
        -822 -150 -14 -4 -4 -23 54 -102 40 -53 506 -693 1036 -1422 530 -729 966
        -1327 968 -1329 5 -5 326 73 1654 400 925 228 1020 252 1021 262 0 5 -334 434
        -744 955 -1345 1710 -1335 1697 -1367 1706 -8 2 -235 -36 -505 -85z"/>
        <path d="M28415 18440 c-126 -35 -1948 -509 -2895 -754 -393 -101 -1073 -278
        -1510 -391 -437 -114 -1236 -321 -1775 -461 -539 -140 -983 -255 -986 -257 -3
        -1 80 -148 184 -327 1188 -2039 1506 -2581 1779 -3037 275 -459 445 -723 467
        -723 4 0 535 180 1181 401 2669 910 5821 1977 6122 2073 37 11 68 25 68 29 0
        4 -104 150 -232 325 -259 355 -1764 2422 -2019 2773 -90 124 -188 260 -217
        303 -29 42 -56 75 -60 75 -4 -1 -52 -14 -107 -29z"/>
    </g>
</svg>
