<?xml version="1.0" standalone="no"?>
<!DOCTYPE svg PUBLIC "-//W3C//DTD SVG 20010904//EN"
 "http://www.w3.org/TR/2001/REC-SVG-20010904/DTD/svg10.dtd">
<svg version="1.0" xmlns="http://www.w3.org/2000/svg" viewBox="0 0 4096.000000 4096.000000" preserveAspectRatio="xMidYMid meet">
    <g transform="translate(0.000000,4096.000000) scale(0.100000,-0.100000)" fill="#000000" stroke="none">
        <path d="M19665 40949 c-3378 -138 -6605 -1079 -9494 -2766 -2828 -1652 -5236
        -3971 -6989 -6730 -1827 -2876 -2901 -6139 -3136 -9528 -38 -541 -41 -664 -41
        -1455 0 -929 14 -1242 90 -2020 374 -3828 1834 -7484 4206 -10532 3193 -4101
        7787 -6832 12879 -7657 835 -136 1670 -218 2554 -252 341 -13 1483 -7 1771 10
        902 53 1593 127 2370 257 4682 780 8969 3191 12096 6804 2909 3362 4637 7541
        4944 11960 35 514 40 684 40 1440 0 756 -5 926 -40 1440 -218 3133 -1151 6162
        -2732 8869 -1559 2668 -3703 4956 -6268 6686 -3041 2052 -6577 3246 -10230
        3455 -529 30 -1525 39 -2020 19z m-7919 -8289 c569 -46 1067 -207 1474 -478
        173 -115 279 -201 411 -332 423 -421 690 -989 771 -1640 21 -171 16 -546 -10
        -715 -75 -487 -267 -931 -558 -1295 -88 -109 -275 -296 -384 -384 -226 -181
        -551 -363 -823 -461 -771 -276 -1729 -268 -2466 22 -250 98 -523 256 -726 420
        -121 97 -326 306 -417 423 -219 283 -385 623 -474 969 -201 782 -71 1602 356
        2243 468 706 1267 1144 2235 1227 145 12 462 13 611 1z m15725 -7335 c536 -17
        1123 -114 1649 -273 637 -193 1269 -519 1766 -912 243 -192 580 -518 761 -737
        978 -1178 1493 -2714 1583 -4718 6 -138 10 -1992 10 -4967 l0 -4748 -2650 0
        -2650 0 0 4253 c0 2389 -5 4379 -10 4542 -10 325 -28 547 -65 803 -157 1082
        -575 1834 -1245 2236 -293 177 -609 278 -1025 328 -154 18 -583 15 -740 -6
        -821 -110 -1509 -541 -1987 -1246 -142 -209 -238 -383 -331 -601 -118 -277
        -173 -548 -197 -979 -6 -121 -10 -1757 -10 -4757 l0 -4573 -2655 0 -2655 0 5
        378 c3 207 10 1799 16 3537 19 5967 11 11968 -17 12058 -5 16 126 17 2650 17
        l2656 0 0 -1130 c0 -621 3 -1130 8 -1130 4 1 53 70 110 156 494 740 1056 1302
        1707 1706 181 112 540 294 725 368 612 243 1271 375 1990 399 118 4 265 6 325
        4 61 -1 185 -5 276 -8z m-13401 -8360 l0 -7995 -2655 0 -2655 0 0 7995 0 7995
        2655 0 2655 0 0 -7995z"/>
    </g>
</svg>
