<?xml version="1.0" standalone="no"?>
<!DOCTYPE svg PUBLIC "-//W3C//DTD SVG 20010904//EN"
 "http://www.w3.org/TR/2001/REC-SVG-20010904/DTD/svg10.dtd">
<svg version="1.0" xmlns="http://www.w3.org/2000/svg" viewBox="0 0 2000.000000 2000.000000" preserveAspectRatio="xMidYMid meet">
    <g transform="translate(0.000000,2000.000000) scale(0.100000,-0.100000)" fill="#000000" stroke="none">
        <path d="M9425 19989 c-1980 -114 -3860 -805 -5450 -2002 -376 -284 -673 -543
        -1046 -916 -588 -589 -1015 -1126 -1449 -1826 -870 -1401 -1374 -3015 -1470
        -4699 -13 -230 -13 -872 0 -1102 113 -1999 795 -3870 1988 -5459 295 -393 551
        -686 931 -1066 380 -380 673 -636 1066 -931 1390 -1044 3021 -1706 4735 -1922
        466 -59 511 -61 1275 -61 764 0 809 2 1275 61 1714 216 3345 878 4735 1922
        393 295 686 551 1066 931 380 380 636 673 931 1066 1044 1390 1706 3021 1922
        4735 59 466 61 511 61 1275 0 764 -2 809 -61 1275 -249 1976 -1076 3806 -2412
        5338 -187 215 -689 717 -904 904 -1721 1501 -3798 2350 -6062 2478 -205 12
        -924 11 -1131 -1z m6362 -5805 c56 -41 68 -84 67 -234 -2 -225 -42 -404 -125
        -560 -106 -196 -252 -339 -584 -570 -461 -320 -623 -486 -714 -730 -47 -127
        -117 -402 -206 -810 -95 -438 -129 -587 -191 -835 -275 -1101 -599 -1798
        -1044 -2246 -140 -141 -267 -237 -421 -318 l-115 -61 17 163 c10 89 21 217 25
        284 6 112 5 123 -11 129 -10 4 -24 3 -32 -2 -8 -5 -43 -79 -77 -164 -89 -218
        -155 -362 -227 -492 -392 -711 -900 -1147 -1589 -1362 -135 -42 -258 -63 -424
        -72 l-121 -7 130 139 c234 251 517 706 657 1054 85 211 150 448 187 675 25
        159 42 357 32 368 -35 36 -101 -92 -216 -418 -93 -264 -205 -450 -309 -514
        -49 -31 -241 -45 -511 -38 -261 7 -407 21 -945 87 -610 75 -703 83 -1000 84
        -475 1 -764 -60 -1118 -234 -186 -91 -297 -156 -657 -385 -426 -271 -484 -303
        -746 -423 -107 -49 -275 -128 -374 -175 -365 -172 -557 -225 -895 -248 -135
        -9 -175 -9 -220 2 -51 13 -56 17 -69 54 -30 86 32 206 270 525 l160 215 -23
        19 c-13 10 -52 33 -88 51 -75 38 -155 97 -302 220 -123 104 -198 156 -278 194
        l-60 28 35 47 c49 63 146 140 230 182 179 88 474 87 1010 -6 393 -67 452 -74
        640 -74 239 -1 261 7 395 143 121 122 240 267 370 451 130 183 210 278 350
        418 267 265 614 515 880 633 58 26 238 93 400 149 162 56 399 138 525 182 127
        43 415 138 640 209 925 293 1295 430 1700 629 512 251 808 493 1117 910 156
        211 245 353 538 855 249 427 374 619 533 818 316 397 679 648 1083 751 177 45
        360 67 704 86 249 13 363 41 548 134 180 91 261 116 354 113 49 -2 75 -8 95
        -23z"/>
    </g>
</svg>
