<?xml version="1.0" standalone="no"?>
<!DOCTYPE svg PUBLIC "-//W3C//DTD SVG 20010904//EN"
 "http://www.w3.org/TR/2001/REC-SVG-20010904/DTD/svg10.dtd">
<svg version="1.0" xmlns="http://www.w3.org/2000/svg"
 width="3200.000000pt" height="3200.000000pt" viewBox="0 0 3200.000000 3200.000000"
 preserveAspectRatio="xMidYMid meet">
<g transform="translate(0.000000,3200.000000) scale(0.100000,-0.100000)"
fill="#000000" stroke="none">
<path d="M15385 31994 c-33 -2 -154 -8 -270 -14 -3695 -192 -7228 -1687 -9980
-4225 -217 -200 -755 -741 -945 -950 -1547 -1703 -2667 -3610 -3381 -5755
-467 -1404 -729 -2828 -799 -4345 -13 -283 -13 -1126 0 -1410 149 -3252 1234
-6288 3174 -8885 1568 -2098 3676 -3813 6044 -4917 1743 -812 3605 -1301 5507
-1448 429 -33 539 -37 1091 -42 577 -6 872 2 1309 32 2347 165 4607 837 6660
1982 2200 1228 4102 2982 5510 5083 1515 2262 2425 4866 2645 7570 37 459 42
575 47 1150 7 703 -8 1114 -62 1690 -217 2311 -933 4543 -2098 6540 -1856
3181 -4749 5630 -8183 6928 -1355 512 -2816 844 -4259 967 -471 40 -650 47
-1300 50 -357 1 -677 1 -710 -1z m8072 -8190 c174 -92 311 -223 385 -369 94
-184 110 -386 47 -592 -24 -76 -95 -224 -139 -288 -16 -23 -325 -406 -686
-851 -362 -445 -677 -839 -701 -877 -108 -165 -153 -308 -154 -482 -1 -181 20
-271 147 -621 187 -517 302 -1012 356 -1524 20 -196 17 -835 -5 -1025 -97
-810 -337 -1501 -780 -2240 -457 -764 -1197 -1583 -1987 -2201 -1072 -839
-2368 -1459 -3915 -1874 -677 -182 -1038 -247 -2150 -390 -757 -97 -1008 -136
-1460 -226 -393 -77 -653 -152 -996 -287 -319 -126 -773 -331 -935 -424 -127
-72 -317 -219 -428 -329 -262 -262 -403 -477 -609 -929 -188 -412 -240 -509
-340 -632 -73 -91 -136 -113 -214 -76 -69 33 -196 240 -439 718 -243 478 -354
736 -484 1124 -256 765 -401 1570 -461 2561 -44 721 33 1675 197 2425 199 914
496 1646 989 2436 967 1550 2083 2733 3430 3634 753 504 1536 892 2442 1211
1366 479 2761 602 4158 364 687 -117 1366 -316 2065 -605 216 -90 292 -113
395 -124 154 -15 294 21 436 114 146 95 442 419 670 735 269 372 515 849 629
1221 74 241 170 379 300 432 95 38 151 36 237 -9z"/>
</g>
</svg>
