<?xml version="1.0" standalone="no"?>
<!DOCTYPE svg PUBLIC "-//W3C//DTD SVG 20010904//EN"
 "http://www.w3.org/TR/2001/REC-SVG-20010904/DTD/svg10.dtd">
<svg version="1.0" xmlns="http://www.w3.org/2000/svg" viewBox="0 0 1000.000000 1000.000000" preserveAspectRatio="xMidYMid meet">
    <g transform="translate(0.000000,1000.000000) scale(0.100000,-0.100000)" fill="#000000" stroke="none">
        <path d="M4660 9994 c-19 -2 -87 -9 -150 -15 -899 -82 -1806 -437 -2529 -989
        -206 -157 -312 -250 -512 -450 -200 -199 -334 -353 -491 -563 -484 -649 -808
        -1430 -928 -2239 -68 -457 -68 -1029 0 -1486 122 -820 450 -1605 946 -2262
        167 -221 257 -324 468 -535 418 -418 810 -699 1331 -955 550 -270 1103 -429
        1704 -490 134 -13 878 -13 1012 0 601 61 1154 220 1704 490 521 256 913 537
        1331 955 211 211 301 314 468 535 544 721 885 1593 976 2499 13 134 13 878 0
        1012 -90 894 -426 1763 -958 2476 -285 382 -645 744 -1020 1027 -620 467
        -1386 798 -2143 925 -322 55 -427 63 -814 66 -198 2 -376 1 -395 -1z m-1700
        -2443 c131 -44 304 -133 387 -197 139 -109 123 -102 268 -110 216 -11 453 -75
        611 -166 236 -135 507 -330 694 -500 323 -293 634 -716 760 -1033 99 -249 431
        -954 491 -1042 22 -31 42 -47 81 -62 197 -75 402 -178 548 -276 284 -190 476
        -350 584 -489 61 -79 66 -88 66 -135 l0 -50 -82 -25 c-99 -29 -162 -42 -288
        -56 -52 -6 -153 -26 -225 -45 l-129 -33 43 -40 c23 -21 83 -63 132 -93 254
        -154 370 -245 485 -382 38 -45 97 -109 131 -142 69 -67 113 -151 113 -216 0
        -37 -1 -39 -33 -39 -36 0 -64 16 -117 66 -100 94 -261 198 -450 291 -222 109
        -263 134 -413 246 -114 86 -210 193 -248 277 -11 25 -27 58 -34 73 -21 40 -19
        103 3 125 26 26 279 107 396 127 54 9 159 19 233 23 l135 7 -108 72 c-60 39
        -179 119 -264 178 -85 59 -171 115 -191 125 -43 22 -263 103 -407 149 -56 19
        -117 43 -135 55 -66 45 -141 168 -254 416 -36 80 -114 249 -174 377 -60 127
        -128 282 -153 345 -54 140 -120 261 -241 443 -313 469 -785 876 -1248 1075
        -139 59 -202 78 -281 84 -224 18 -334 31 -356 42 -14 7 -53 37 -87 67 -92 79
        -426 244 -505 248 -38 3 -78 -19 -89 -48 -14 -37 31 -126 125 -246 120 -152
        213 -289 255 -373 22 -43 78 -195 125 -337 104 -314 168 -446 267 -552 88 -93
        99 -117 99 -211 0 -68 -7 -99 -60 -253 -32 -97 -66 -217 -75 -266 -21 -116
        -21 -323 -1 -447 30 -181 112 -392 178 -456 l34 -32 18 155 c32 281 67 380
        182 523 63 77 70 82 106 82 43 0 38 8 98 -150 54 -142 212 -456 312 -621 150
        -247 249 -381 380 -512 106 -105 118 -121 118 -152 0 -33 -2 -35 -35 -35 -54
        0 -105 32 -207 128 -51 48 -129 118 -173 154 -98 81 -256 242 -316 322 -24 33
        -69 109 -100 169 -63 122 -61 122 -79 -8 -31 -223 -58 -280 -152 -320 -49 -20
        -177 -20 -225 0 -117 49 -239 216 -307 419 -50 151 -67 257 -73 468 -7 245 3
        329 73 607 l53 214 -43 48 c-47 53 -102 141 -164 264 -46 92 -157 392 -200
        543 -36 121 -55 155 -180 321 -52 69 -117 155 -144 191 -27 35 -66 98 -86 139
        -34 68 -37 82 -40 179 -3 65 0 120 8 146 17 56 65 127 106 155 65 45 100 51
        244 48 121 -3 145 -7 230 -36z m700 -865 c64 -47 90 -101 90 -187 0 -115 -43
        -189 -110 -189 -37 0 -37 1 -78 88 -22 48 -58 108 -79 132 -68 78 -85 107 -81
        142 4 39 22 45 138 47 70 0 78 -2 120 -33z"/>
    </g>
</svg>
