<?xml version="1.0" standalone="no"?>
<!DOCTYPE svg PUBLIC "-//W3C//DTD SVG 20010904//EN"
 "http://www.w3.org/TR/2001/REC-SVG-20010904/DTD/svg10.dtd">
<svg version="1.0" xmlns="http://www.w3.org/2000/svg" viewBox="0 0 3200.000000 3200.000000" preserveAspectRatio="xMidYMid meet">
    <g transform="translate(0.000000,3200.000000) scale(0.100000,-0.100000)" fill="#000000" stroke="none">
        <path d="M15385 31994 c-33 -2 -154 -8 -270 -14 -1465 -76 -2978 -373 -4380
        -862 -3534 -1232 -6538 -3679 -8472 -6903 -223 -370 -379 -657 -588 -1075
        -1004 -2008 -1560 -4158 -1665 -6435 -13 -284 -13 -1126 0 -1410 121 -2631
        852 -5116 2169 -7369 1384 -2366 3381 -4363 5747 -5747 1993 -1165 4168 -1872
        6474 -2103 552 -56 974 -76 1595 -76 882 0 1591 52 2415 176 4758 717 8972
        3579 11412 7752 1179 2018 1901 4263 2113 6577 54 586 60 732 60 1485 0 720
        -4 834 -46 1345 -260 3169 -1457 6170 -3454 8665 -1502 1875 -3416 3398 -5575
        4435 -1757 843 -3625 1351 -5580 1515 -421 35 -615 42 -1245 45 -357 1 -677 1
        -710 -1z m970 -5784 c125 -21 246 -57 355 -105 103 -45 7633 -4391 7733 -4463
        382 -275 622 -691 667 -1157 13 -136 13 -8774 0 -8910 -45 -465 -284 -884
        -655 -1149 -33 -24 -490 -292 -1015 -596 -525 -304 -1857 -1075 -2960 -1713
        -1103 -638 -2383 -1379 -2845 -1646 -462 -268 -876 -503 -920 -523 -222 -100
        -395 -138 -660 -145 -284 -7 -457 23 -665 116 -65 29 -2549 1485 -2738 1605
        -75 47 -143 108 -159 141 -30 64 0 94 140 140 268 87 639 246 882 378 296 160
        295 159 339 152 22 -3 60 -21 85 -39 64 -46 1913 -1154 1956 -1171 42 -18 128
        -19 175 -1 45 16 7504 4319 7549 4355 19 14 48 51 65 81 l31 55 0 4370 c0
        4152 -1 4372 -18 4402 -21 39 -64 81 -92 90 -11 3 -407 232 -880 508 -5871
        3428 -6608 3856 -6656 3867 -37 9 -64 9 -102 1 -40 -9 -828 -455 -3347 -1898
        -1812 -1038 -3509 -2010 -3770 -2159 -433 -248 -478 -277 -512 -321 -22 -29
        -42 -70 -48 -98 -14 -66 -14 -8623 0 -8698 17 -89 42 -115 191 -200 74 -42
        359 -207 634 -366 1507 -872 1413 -821 1637 -896 190 -65 298 -82 503 -81 161
        0 190 3 276 26 397 107 660 405 719 813 6 46 10 1558 10 4363 0 3858 2 4296
        16 4330 19 47 58 88 106 113 35 18 65 19 578 19 513 0 543 -1 578 -19 48 -25
        87 -66 106 -113 14 -34 16 -478 16 -4391 0 -2819 -4 -4400 -10 -4483 -30 -385
        -110 -705 -244 -981 -191 -390 -463 -663 -846 -846 -332 -160 -675 -227 -1155
        -227 -487 0 -785 70 -1327 313 -289 130 -226 95 -2028 1129 -327 188 -380 222
        -492 315 -173 144 -313 322 -413 528 -71 145 -105 240 -138 389 l-22 101 0
        4510 0 4510 23 112 c66 325 207 589 436 818 67 67 150 142 186 167 95 67 7652
        4425 7735 4461 313 134 652 174 990 117z m2060 -6190 c1963 -90 2999 -785
        3284 -2206 38 -186 62 -411 50 -458 -18 -68 -55 -115 -112 -142 l-52 -24 -531
        0 -530 0 -53 26 c-72 36 -104 83 -131 196 -244 997 -859 1329 -2418 1305 -353
        -5 -516 -18 -743 -57 -566 -97 -916 -319 -1033 -655 -38 -110 -49 -189 -50
        -345 0 -164 14 -235 66 -332 124 -233 525 -379 1478 -538 356 -59 611 -97
        1290 -190 1015 -139 1684 -314 2147 -560 584 -311 889 -773 954 -1444 17 -181
        7 -571 -20 -719 -101 -563 -338 -979 -762 -1332 -190 -159 -508 -344 -764
        -446 -635 -252 -1364 -361 -2315 -346 -719 11 -1284 86 -1788 237 -592 178
        -1013 417 -1357 771 -409 421 -618 941 -651 1619 -8 163 1 204 58 266 68 74
        69 74 635 74 342 0 508 -4 540 -12 32 -8 61 -25 94 -57 54 -53 63 -79 99 -286
        64 -374 206 -657 423 -844 305 -263 760 -397 1532 -452 221 -16 915 -16 1120
        0 513 39 879 119 1140 249 272 135 458 350 525 607 43 168 50 404 16 534 -85
        315 -443 510 -1231 671 -414 84 -780 134 -1630 225 -1318 140 -2096 398 -2563
        849 -302 291 -470 655 -521 1128 -14 126 -14 451 0 576 52 477 254 899 589
        1232 501 499 1313 803 2317 870 320 21 585 24 898 10z"/>
    </g>
</svg>
