<?xml version="1.0" standalone="no"?>
<!DOCTYPE svg PUBLIC "-//W3C//DTD SVG 20010904//EN"
 "http://www.w3.org/TR/2001/REC-SVG-20010904/DTD/svg10.dtd">
<svg version="1.0" xmlns="http://www.w3.org/2000/svg" viewBox="0 0 4096.000000 4096.000000" preserveAspectRatio="xMidYMid meet">
    <g transform="translate(0.000000,4096.000000) scale(0.100000,-0.100000)" fill="#000000" stroke="none">
        <path d="M19660 40950 c-1507 -67 -2873 -266 -4275 -625 -2605 -666 -5018
        -1824 -7195 -3454 -1257 -941 -2454 -2079 -3463 -3293 -1968 -2368 -3378
        -5139 -4116 -8093 -349 -1397 -541 -2747 -601 -4215 -21 -514 -11 -1470 20
        -2000 215 -3612 1355 -7049 3334 -10050 778 -1178 1631 -2225 2631 -3225 2719
        -2720 6126 -4613 9860 -5475 1265 -293 2525 -458 3879 -511 341 -13 1482 -7
        1771 10 1472 86 2660 263 3980 592 4287 1072 8152 3548 10946 7014 2638 3271
        4191 7227 4483 11415 36 512 41 684 41 1440 0 756 -5 928 -41 1440 -292 4186
        -1843 8140 -4479 11411 -913 1133 -1971 2191 -3104 3104 -3152 2539 -6947
        4077 -10966 4444 -227 21 -528 43 -860 62 -237 14 -1582 20 -1845 9z m734
        -14377 c-2 -10 -112 -578 -244 -1263 -132 -685 -242 -1255 -245 -1267 l-5 -22
        1182 -4 c767 -3 1223 -8 1298 -15 577 -57 902 -124 1240 -258 538 -214 849
        -550 975 -1054 45 -177 59 -309 59 -540 0 -220 -10 -341 -45 -560 -16 -105
        -879 -4571 -896 -4637 l-5 -23 -1054 0 c-891 0 -1054 2 -1054 14 0 7 189 983
        419 2167 231 1185 426 2201 435 2259 44 307 25 538 -57 709 -106 219 -380 336
        -867 371 -82 5 -532 10 -1037 10 -841 0 -892 -1 -897 -17 -3 -10 -244 -1253
        -537 -2763 -292 -1510 -532 -2746 -534 -2748 -1 -1 -470 -1 -1042 0 l-1039 3
        722 3730 c398 2052 818 4224 935 4828 l213 1097 1042 0 c987 0 1042 -1 1038
        -17z m-6419 -2563 c960 -62 1683 -344 2190 -854 358 -361 568 -799 657 -1371
        25 -167 36 -588 19 -790 -84 -1000 -402 -1825 -970 -2514 -126 -153 -465 -494
        -614 -617 -577 -477 -1199 -741 -2007 -853 -443 -61 -700 -71 -1916 -71 -832
        0 -1053 -3 -1056 -12 -3 -7 -115 -581 -248 -1276 -134 -694 -247 -1267 -250
        -1272 -4 -7 -372 -9 -1051 -8 l-1045 3 930 4822 931 4823 2135 0 c1345 0 2194
        -4 2295 -10z m16610 -13 c702 -80 1183 -235 1610 -520 352 -234 630 -551 811
        -922 281 -578 336 -1287 168 -2160 -181 -938 -615 -1719 -1310 -2360 -681
        -627 -1376 -934 -2367 -1045 -378 -42 -425 -43 -1627 -47 l-1176 -4 -193
        -1002 c-107 -551 -218 -1129 -248 -1284 l-55 -283 -1050 0 -1050 0 6 28 c3 15
        420 2174 926 4797 506 2624 923 4783 926 4798 l6 28 2241 -4 c1976 -3 2259 -6
        2382 -20z"/>
        <path d="M11366 22499 c-3 -8 -179 -912 -391 -2009 -213 -1097 -389 -2003
        -392 -2013 -5 -18 23 -19 819 -14 504 3 868 9 938 16 873 86 1392 324 1753
        803 324 432 551 1154 574 1828 12 371 -45 642 -181 854 -166 260 -509 428
        -1021 501 -236 33 -344 37 -1212 42 -738 4 -884 3 -887 -8z"/>
        <path d="M27786 22501 c-6 -9 -786 -4012 -786 -4033 0 -12 1371 -9 1585 2 763
        42 1304 217 1676 543 376 329 642 882 768 1597 99 561 69 994 -89 1287 -92
        170 -215 284 -415 383 -228 113 -476 173 -865 211 -162 15 -1865 25 -1874 10z"/>
    </g>
</svg>
