<?xml version="1.0" standalone="no"?>
<!DOCTYPE svg PUBLIC "-//W3C//DTD SVG 20010904//EN"
 "http://www.w3.org/TR/2001/REC-SVG-20010904/DTD/svg10.dtd">
<svg version="1.0" xmlns="http://www.w3.org/2000/svg"
 width="4096.000000pt" height="4096.000000pt" viewBox="0 0 4096.000000 4096.000000"
 preserveAspectRatio="xMidYMid meet">
<g transform="translate(0.000000,4096.000000) scale(0.100000,-0.100000)"
fill="#000000" stroke="none">
<path d="M19670 40950 c-1590 -68 -3099 -299 -4575 -701 -2653 -723 -5114
-1964 -7293 -3678 -372 -293 -798 -656 -1198 -1022 -244 -223 -970 -949 -1194
-1194 -1176 -1286 -2124 -2612 -2944 -4115 -149 -273 -461 -896 -601 -1200
-1024 -2224 -1640 -4620 -1815 -7060 -41 -573 -45 -720 -45 -1510 0 -765 4
-896 40 -1435 166 -2439 783 -4865 1806 -7095 130 -285 475 -975 615 -1230
722 -1322 1556 -2526 2524 -3644 327 -377 581 -648 1009 -1077 538 -538 930
-895 1457 -1330 892 -736 1879 -1417 2884 -1991 637 -364 1414 -751 2080
-1035 2243 -959 4558 -1492 7045 -1623 247 -13 1793 -13 2040 0 2488 131 4801
664 7045 1623 666 284 1443 671 2080 1035 1005 574 1992 1255 2884 1991 527
435 919 792 1457 1330 538 538 895 930 1330 1457 736 892 1417 1879 1991 2884
364 637 751 1414 1035 2080 959 2244 1492 4557 1623 7045 13 247 13 1793 0
2040 -121 2306 -585 4450 -1415 6540 -229 576 -423 1008 -721 1605 -402 802
-755 1413 -1245 2150 -611 921 -1237 1720 -2010 2566 -222 244 -949 971 -1193
1193 -1289 1178 -2607 2121 -4116 2945 -255 140 -945 485 -1230 615 -2098 962
-4346 1560 -6655 1770 -223 21 -523 42 -850 62 -227 13 -1584 20 -1845 9z
m6820 -8209 c1068 -97 1981 -347 2834 -773 703 -352 1287 -776 1836 -1335 622
-632 873 -1028 1019 -1608 135 -538 156 -1408 56 -2295 -79 -689 -255 -1587
-450 -2285 -86 -309 -117 -416 -185 -640 -500 -1650 -1250 -3371 -2148 -4925
-52 -91 -104 -178 -115 -194 l-20 -29 139 7 c395 20 768 72 1180 166 278 64
383 80 516 80 242 0 448 -70 702 -238 267 -176 440 -443 533 -817 13 -52 17
-111 17 -235 -1 -153 -3 -173 -33 -284 -51 -192 -137 -356 -301 -575 -219
-293 -458 -514 -795 -736 -182 -119 -322 -198 -580 -327 -524 -262 -845 -374
-1435 -498 -407 -86 -1047 -132 -1532 -111 -139 6 -254 8 -257 5 -3 -2 -15
-62 -28 -132 -16 -90 -26 -196 -33 -367 -22 -541 -44 -904 -75 -1255 -141
-1543 -452 -2621 -988 -3420 -461 -688 -1095 -1147 -1992 -1445 -311 -103
-753 -210 -1055 -256 -183 -27 -605 -38 -798 -20 -617 58 -1179 283 -1590 636
-367 316 -684 833 -869 1420 -24 77 -75 237 -113 355 -196 612 -274 1089 -324
1975 -16 284 -20 353 -41 900 -31 807 -37 950 -39 952 -1 1 -49 -17 -107 -41
-468 -193 -957 -286 -1511 -286 -593 0 -1261 121 -1698 307 -329 141 -591 309
-757 488 l-89 96 -65 -52 c-35 -29 -124 -92 -196 -140 -789 -519 -1672 -489
-2476 83 -427 304 -887 837 -1259 1458 -476 794 -949 1923 -1432 3418 -414
1278 -864 3060 -1126 4462 -17 91 -35 185 -40 210 -21 98 -101 587 -129 795
-66 479 -81 718 -81 1270 1 764 56 1316 196 1934 487 2157 1879 3505 4018
3891 468 84 726 104 1341 105 504 0 590 -4 975 -41 880 -85 1896 -306 2770
-604 l115 -39 105 59 c617 346 1372 579 2155 665 672 73 1655 26 2489 -119
l78 -13 137 39 c696 201 1476 330 2306 382 33 2 276 2 540 1 386 -3 524 -7
705 -24z"/>
<path d="M25530 32103 c-166 -4 -568 -30 -755 -49 -671 -67 -1349 -207 -1899
-390 l-138 -46 -82 21 c-301 75 -703 139 -1111 178 -273 25 -969 25 -1205 0
-585 -64 -1060 -182 -1515 -377 -176 -75 -460 -223 -619 -323 -76 -48 -144
-87 -150 -87 -6 0 -63 20 -126 44 -464 175 -1205 385 -1755 495 -631 126
-1148 189 -1743 213 -1348 52 -2464 -215 -3318 -794 -706 -479 -1218 -1174
-1529 -2078 -181 -527 -286 -1098 -331 -1795 -20 -315 -15 -1032 10 -1285 119
-1240 651 -3647 1201 -5435 195 -634 402 -1239 577 -1690 448 -1150 835 -1910
1271 -2491 423 -564 853 -895 1307 -1006 120 -30 388 -36 520 -14 186 33 409
125 585 242 214 142 392 314 660 634 233 279 561 661 794 925 372 422 980
1086 1001 1093 4 2 41 -14 82 -34 354 -179 784 -296 1175 -320 107 -6 112 -8
118 -31 4 -19 -5 -36 -48 -86 -30 -34 -125 -150 -213 -257 -87 -107 -189 -225
-226 -261 -120 -119 -273 -198 -542 -279 -176 -53 -271 -76 -706 -170 -479
-104 -760 -229 -925 -412 -101 -112 -145 -226 -145 -372 0 -109 16 -170 73
-281 49 -94 183 -236 287 -304 102 -65 307 -167 439 -216 253 -95 654 -176
1016 -206 204 -17 651 -6 827 20 604 89 1117 314 1576 690 67 56 125 101 127
101 3 0 5 -370 5 -822 0 -453 2 -877 5 -943 3 -66 10 -289 15 -495 35 -1281
145 -2309 288 -2695 228 -614 538 -1086 910 -1387 470 -379 1113 -549 1823
-483 621 59 1379 289 1844 560 731 427 1130 1044 1354 2095 84 390 244 1527
417 2955 44 364 130 1128 155 1368 7 64 16 117 20 117 4 0 50 -11 101 -25 239
-64 486 -90 868 -90 587 0 1128 70 1655 215 281 77 499 164 791 315 535 275
926 574 1158 885 143 193 200 355 178 512 -22 152 -115 296 -240 372 -32 19
-93 47 -137 62 -74 26 -91 28 -225 27 -128 0 -169 -5 -350 -42 -346 -69 -405
-80 -680 -121 -701 -105 -1318 -88 -1685 47 -73 27 -195 92 -195 104 0 4 53
90 118 190 825 1281 1571 2764 2137 4250 357 937 686 2021 860 2839 155 727
240 1318 275 1897 13 219 13 685 0 873 -37 536 -157 962 -355 1267 -164 250
-613 740 -925 1007 -816 698 -1726 1150 -2810 1395 -590 133 -1288 199 -1940
184z m670 -683 c628 -35 1190 -139 1745 -325 1028 -343 1873 -929 2574 -1785
83 -100 124 -161 160 -235 97 -197 153 -420 197 -785 25 -202 25 -783 1 -1060
-114 -1279 -465 -2708 -1050 -4265 -466 -1240 -1085 -2522 -1765 -3655 -167
-278 -282 -460 -290 -460 -4 1 -33 34 -65 76 l-59 74 45 78 c205 355 352 763
431 1192 47 257 58 387 63 740 6 412 -11 669 -87 1305 -26 213 -55 479 -72
655 -8 79 -13 262 -13 440 0 393 11 497 135 1345 48 329 71 576 81 890 5 160
12 312 15 338 12 94 -48 365 -137 625 -89 258 -249 626 -402 922 -547 1064
-1303 1999 -2191 2710 -457 366 -988 696 -1498 931 -65 30 -118 57 -118 60 0
9 317 70 540 103 598 90 1170 118 1760 86z m-4845 -265 c891 -59 1646 -247
2400 -596 1005 -467 1892 -1204 2628 -2184 381 -507 700 -1054 939 -1610 69
-159 154 -402 144 -412 -3 -3 -72 1 -153 8 -221 21 -759 18 -938 -4 -233 -30
-361 -56 -540 -109 -644 -194 -1063 -624 -1210 -1242 -43 -182 -58 -323 -57
-556 1 -448 90 -908 293 -1512 247 -735 602 -1480 1316 -2763 105 -188 223
-420 289 -565 154 -340 336 -631 635 -1012 144 -184 243 -318 237 -322 -2 -2
-48 -17 -103 -35 -313 -103 -551 -286 -708 -546 -137 -229 -207 -553 -207
-960 0 -146 -10 -281 -40 -560 -34 -310 -94 -837 -125 -1095 -8 -69 -22 -183
-30 -255 -152 -1280 -357 -2762 -441 -3175 -83 -414 -223 -796 -379 -1040
-339 -530 -901 -844 -1875 -1045 -272 -57 -622 -79 -853 -56 -517 54 -927 322
-1232 806 -124 196 -291 567 -334 740 -120 479 -195 1383 -233 2785 -15 571
-15 2205 0 2738 l11 393 -30 147 c-66 317 -195 568 -399 772 -150 151 -305
245 -525 318 -165 55 -344 71 -473 43 -34 -8 -65 -11 -68 -8 -8 7 86 327 165
567 119 357 198 558 376 960 164 369 235 548 325 820 142 425 222 806 277
1320 26 239 26 1059 0 1340 -50 539 -135 1089 -243 1565 -154 673 -571 1162
-1151 1349 -569 183 -1275 120 -2103 -186 -222 -83 -552 -234 -708 -326 l-44
-25 7 79 c144 1651 625 3021 1396 3975 354 438 805 807 1278 1043 474 238
1006 383 1556 426 77 5 156 12 175 14 104 9 556 4 755 -9z m-6670 -60 c841
-64 1668 -230 2620 -527 72 -22 132 -42 134 -44 2 -2 -48 -57 -111 -122 -876
-909 -1472 -2286 -1738 -4012 -90 -585 -128 -1311 -96 -1825 35 -576 39 -699
39 -1160 0 -650 -23 -1024 -99 -1620 -82 -635 -48 -1124 113 -1645 178 -577
470 -1059 904 -1492 l167 -167 -101 -108 c-578 -620 -1126 -1241 -1694 -1919
-306 -365 -525 -532 -771 -588 -679 -154 -1509 894 -2324 2939 -386 966 -793
2283 -1133 3660 -121 490 -136 557 -254 1085 -99 442 -252 1253 -325 1725 -77
492 -94 675 -102 1094 -32 1656 331 2865 1098 3656 355 367 759 624 1268 808
444 161 924 248 1540 281 136 8 674 -4 865 -19z m12580 -5405 c66 -5 158 -15
204 -21 l84 -11 -7 -142 c-9 -180 -35 -419 -85 -771 -99 -696 -123 -960 -123
-1350 -1 -323 24 -631 107 -1305 114 -934 101 -1486 -51 -2012 -52 -183 -156
-448 -175 -448 -13 0 -97 162 -170 325 -87 198 -87 198 -344 660 -583 1049
-888 1676 -1132 2330 -356 953 -427 1707 -203 2151 170 339 544 542 1095 594
61 5 126 12 145 14 60 7 529 -3 655 -14z m-8574 -129 c183 -40 288 -82 414
-166 131 -87 229 -200 304 -352 76 -152 111 -275 180 -618 267 -1330 289
-2396 68 -3235 -87 -330 -176 -565 -402 -1070 -182 -405 -198 -445 -334 -807
-128 -343 -237 -669 -272 -810 -12 -48 -23 -90 -25 -92 -6 -7 -164 -1 -259 9
-953 104 -1810 821 -2142 1795 -116 342 -157 592 -157 970 1 222 4 278 32 495
119 924 140 1698 76 2822 l-17 297 24 21 c57 48 234 163 354 231 477 267 1065
468 1530 524 177 21 500 14 626 -14z m9090 -7905 c214 -163 500 -265 909 -323
178 -26 812 -25 1045 0 350 38 679 89 968 148 54 11 101 19 103 16 11 -11
-259 -223 -427 -335 -221 -147 -497 -293 -694 -367 -329 -123 -756 -214 -1270
-272 -231 -25 -798 -26 -975 0 -258 37 -432 97 -446 154 -4 14 -4 90 0 167 18
397 114 607 325 708 51 25 379 134 412 137 3 1 26 -14 50 -33z m-8165 -87
c145 -44 261 -131 351 -265 100 -147 138 -262 138 -419 0 -148 -15 -188 -125
-334 -462 -611 -1042 -940 -1792 -1016 -490 -50 -1156 43 -1517 211 -91 43
-161 87 -161 102 0 8 20 17 142 63 102 38 187 60 467 120 747 161 1075 290
1362 535 97 82 186 181 334 369 232 293 333 413 425 506 149 149 224 175 376
128z"/>
<path d="M26280 25355 c-281 -45 -497 -165 -515 -288 -19 -126 155 -305 360
-370 105 -33 254 -31 353 5 145 53 274 153 358 279 108 163 95 267 -43 331
-115 54 -329 72 -513 43z"/>
<path d="M18360 25190 c-213 -15 -345 -74 -391 -175 -37 -80 -20 -169 55 -285
140 -216 365 -349 591 -350 144 0 288 50 412 144 206 156 241 339 91 470 -64
56 -189 118 -304 150 -79 22 -304 59 -337 54 -7 0 -59 -4 -117 -8z"/>
</g>
</svg>
