<?xml version="1.0" standalone="no"?>
<!DOCTYPE svg PUBLIC "-//W3C//DTD SVG 20010904//EN"
 "http://www.w3.org/TR/2001/REC-SVG-20010904/DTD/svg10.dtd">
<svg version="1.0" xmlns="http://www.w3.org/2000/svg"
 width="4096.000000pt" height="4096.000000pt" viewBox="0 0 4096.000000 4096.000000"
 preserveAspectRatio="xMidYMid meet">
<g transform="translate(0.000000,4096.000000) scale(0.100000,-0.100000)"
fill="#000000" stroke="none">
<path d="M19670 40950 c-1590 -68 -3099 -299 -4575 -701 -2653 -723 -5114
-1964 -7293 -3678 -372 -293 -798 -656 -1198 -1022 -244 -223 -970 -949 -1194
-1194 -1176 -1286 -2124 -2612 -2944 -4115 -149 -273 -461 -896 -601 -1200
-1024 -2224 -1640 -4620 -1815 -7060 -41 -573 -45 -720 -45 -1510 0 -765 4
-896 40 -1435 166 -2439 783 -4865 1806 -7095 130 -285 475 -975 615 -1230
722 -1322 1556 -2526 2524 -3644 327 -377 581 -648 1009 -1077 538 -538 930
-895 1457 -1330 892 -736 1879 -1417 2884 -1991 637 -364 1414 -751 2080
-1035 2243 -959 4558 -1492 7045 -1623 247 -13 1793 -13 2040 0 2488 131 4801
664 7045 1623 666 284 1443 671 2080 1035 1005 574 1992 1255 2884 1991 527
435 919 792 1457 1330 538 538 895 930 1330 1457 736 892 1417 1879 1991 2884
364 637 751 1414 1035 2080 959 2244 1492 4557 1623 7045 13 247 13 1793 0
2040 -121 2306 -585 4450 -1415 6540 -229 576 -423 1008 -721 1605 -402 802
-755 1413 -1245 2150 -611 921 -1237 1720 -2010 2566 -222 244 -949 971 -1193
1193 -1289 1178 -2607 2121 -4116 2945 -255 140 -945 485 -1230 615 -2098 962
-4346 1560 -6655 1770 -223 21 -523 42 -850 62 -227 13 -1584 20 -1845 9z
m1575 -7935 c127 -8 280 -17 340 -20 130 -7 503 -39 700 -62 77 -8 178 -19
225 -23 81 -7 131 -13 465 -61 291 -42 517 -82 645 -116 30 -8 73 -18 95 -23
103 -22 528 -175 625 -225 14 -7 74 -37 133 -66 156 -77 153 -76 252 -137 347
-212 601 -421 844 -697 239 -270 392 -517 546 -880 26 -61 103 -313 124 -405
12 -52 30 -151 41 -219 20 -121 20 -182 20 -3259 0 -3117 0 -3136 -21 -3271
-32 -211 -68 -369 -120 -531 -61 -189 -178 -450 -269 -600 -21 -36 -47 -78
-56 -95 -66 -118 -311 -420 -450 -555 -274 -266 -606 -483 -949 -622 -229 -93
-348 -126 -675 -190 l-115 -23 -3270 -5 c-2545 -4 -3296 -8 -3385 -18 -192
-22 -443 -69 -600 -114 -147 -41 -412 -133 -456 -156 -11 -6 -62 -30 -114 -54
-650 -297 -1200 -770 -1607 -1383 -36 -55 -73 -111 -83 -125 -41 -62 -173
-316 -221 -425 -28 -66 -60 -139 -70 -162 -11 -24 -19 -48 -19 -54 0 -6 -7
-25 -15 -42 -14 -31 -41 -118 -82 -262 -51 -177 -93 -407 -114 -615 -9 -91
-14 -521 -16 -1588 l-4 -1463 -1127 4 c-806 2 -1160 7 -1242 16 -594 64 -1053
247 -1501 597 -122 95 -400 375 -485 487 -102 135 -162 220 -194 274 -17 28
-38 57 -45 63 -8 7 -15 17 -15 22 0 5 -16 34 -36 65 -19 31 -40 65 -45 77 -6
12 -23 44 -38 71 -28 50 -104 201 -143 285 -12 25 -24 52 -28 61 -13 25 -66
159 -95 234 -14 39 -30 80 -35 92 -26 62 -118 355 -158 503 -52 190 -62 229
-62 245 0 9 -9 49 -19 88 -48 179 -150 665 -199 947 -79 450 -121 765 -159
1180 -26 285 -26 1286 0 1570 37 408 95 834 158 1168 74 392 109 560 200 952
52 225 115 448 162 580 91 255 216 533 321 715 19 33 42 72 51 88 22 39 116
181 166 252 214 304 540 629 851 850 159 113 377 239 553 320 55 25 114 52
130 60 60 28 228 88 410 145 121 38 394 95 610 127 114 17 346 18 4438 21
l4317 2 0 380 0 380 -2995 0 -2995 0 0 1318 c1 1094 3 1344 16 1477 8 88 19
201 23 250 28 292 134 670 254 900 55 105 45 87 132 220 153 232 440 489 726
650 93 53 367 185 382 185 7 0 17 4 22 9 19 19 351 134 560 194 142 41 406
106 560 137 61 12 137 28 170 35 33 7 83 16 110 20 28 4 97 15 155 25 493 88
1135 160 1750 195 151 9 289 17 305 19 17 2 363 3 770 4 557 1 797 -2 970 -13z
m8790 -6408 c55 -10 129 -25 165 -34 36 -8 92 -21 125 -28 210 -47 541 -197
746 -338 297 -203 579 -502 788 -832 43 -68 140 -235 164 -280 94 -181 198
-412 256 -565 11 -30 32 -85 45 -121 26 -66 119 -355 156 -479 50 -168 146
-552 200 -800 11 -52 29 -133 40 -180 123 -552 225 -1219 277 -1820 26 -299
26 -1298 0 -1575 -38 -399 -88 -732 -159 -1055 -71 -327 -120 -513 -220 -835
-22 -71 -47 -148 -55 -170 -9 -22 -19 -53 -24 -70 -6 -26 -59 -177 -118 -340
-10 -27 -29 -79 -41 -115 -13 -36 -27 -69 -31 -74 -5 -6 -9 -17 -9 -26 0 -9
-9 -35 -20 -58 -11 -22 -20 -46 -20 -51 0 -6 -9 -30 -19 -53 -43 -95 -61 -138
-61 -145 0 -6 -14 -39 -55 -128 -8 -16 -24 -52 -36 -80 -44 -100 -149 -312
-198 -400 -28 -49 -56 -101 -63 -115 -28 -56 -149 -242 -234 -359 -248 -344
-611 -645 -954 -792 -127 -54 -133 -56 -215 -82 -146 -46 -179 -54 -320 -80
-298 -54 -28 -51 -4952 -54 l-4583 -3 0 -375 0 -375 2985 0 2986 0 -3 -1287
c-3 -1189 -4 -1296 -21 -1393 -81 -470 -225 -810 -496 -1175 -97 -129 -414
-446 -554 -553 -306 -233 -611 -412 -987 -580 -41 -19 -82 -37 -90 -41 -110
-56 -588 -225 -820 -291 -41 -11 -104 -29 -140 -39 -36 -11 -103 -29 -150 -41
-47 -12 -107 -28 -135 -36 -565 -151 -1257 -267 -1910 -320 -260 -21 -926 -30
-1152 -15 -406 27 -624 49 -923 92 -197 28 -513 84 -672 120 -49 10 -130 28
-180 39 -360 79 -881 228 -1173 336 -305 112 -406 155 -663 283 -175 86 -172
85 -282 149 -187 109 -433 276 -554 376 -229 191 -328 288 -477 470 -291 355
-463 722 -551 1176 l-22 115 -3 3150 -4 3150 21 140 c23 152 49 277 82 395 26
94 66 219 78 245 5 11 23 56 40 100 176 451 527 921 922 1234 183 144 207 162
343 243 307 185 658 318 990 377 269 48 38 45 3555 51 3081 5 3282 6 3385 23
336 54 663 142 870 232 17 8 55 23 85 35 70 27 319 152 385 192 350 215 573
386 806 618 299 297 569 669 743 1025 32 66 64 131 71 145 7 14 27 61 45 105
17 44 37 94 44 110 35 76 123 374 155 520 86 395 90 509 91 2108 l0 1327 1303
-2 c1210 -3 1309 -4 1402 -21z"/>
<path d="M16810 31181 c-255 -29 -548 -195 -714 -405 -84 -106 -124 -175 -185
-321 -84 -198 -93 -527 -21 -745 57 -175 141 -313 274 -448 174 -178 364 -279
611 -322 134 -24 219 -25 350 -4 388 63 692 300 865 674 30 64 71 232 81 332
24 237 -34 499 -158 703 -76 125 -242 294 -363 370 -78 49 -237 125 -262 125
-7 0 -41 9 -76 20 -71 22 -289 34 -402 21z"/>
<path d="M23860 12187 c-382 -28 -724 -268 -901 -632 -32 -67 -59 -128 -59
-136 -1 -8 -7 -32 -15 -54 -8 -22 -22 -96 -31 -165 -14 -106 -15 -142 -5 -240
23 -223 95 -409 228 -585 60 -80 169 -190 221 -222 15 -9 39 -27 53 -38 43
-35 179 -101 264 -130 274 -90 596 -68 840 58 11 6 34 17 50 26 65 32 193 132
261 202 284 296 388 732 267 1123 -24 79 -44 132 -66 171 -6 11 -17 34 -26 50
-45 93 -164 239 -250 309 -255 207 -508 287 -831 263z"/>
</g>
</svg>
