<?xml version="1.0" standalone="no"?>
<!DOCTYPE svg PUBLIC "-//W3C//DTD SVG 20010904//EN"
 "http://www.w3.org/TR/2001/REC-SVG-20010904/DTD/svg10.dtd">
<svg version="1.0" xmlns="http://www.w3.org/2000/svg"
 width="3200.000000pt" height="3200.000000pt" viewBox="0 0 3200.000000 3200.000000"
 preserveAspectRatio="xMidYMid meet">
<g transform="translate(0.000000,3200.000000) scale(0.100000,-0.100000)"
fill="#000000" stroke="none">
<path d="M15385 31994 c-33 -2 -154 -8 -270 -14 -3695 -192 -7228 -1687 -9980
-4225 -217 -200 -755 -741 -945 -950 -1547 -1703 -2667 -3610 -3381 -5755
-467 -1404 -729 -2828 -799 -4345 -13 -283 -13 -1126 0 -1410 149 -3252 1234
-6288 3174 -8885 1568 -2098 3676 -3813 6044 -4917 1743 -812 3605 -1301 5507
-1448 429 -33 539 -37 1091 -42 577 -6 872 2 1309 32 2347 165 4607 837 6660
1982 2200 1228 4102 2982 5510 5083 1515 2262 2425 4866 2645 7570 37 459 42
575 47 1150 7 703 -8 1114 -62 1690 -217 2311 -933 4543 -2098 6540 -1856
3181 -4749 5630 -8183 6928 -1355 512 -2816 844 -4259 967 -471 40 -650 47
-1300 50 -357 1 -677 1 -710 -1z m4806 -7244 c662 -65 1100 -385 1419 -1035
411 -838 501 -2107 256 -3590 -34 -202 -68 -377 -137 -702 -18 -84 -30 -155
-28 -158 3 -2 120 -38 260 -79 591 -174 1120 -382 1654 -651 678 -342 1119
-651 1525 -1070 337 -348 559 -725 648 -1100 24 -100 26 -129 26 -310 0 -227
-14 -317 -84 -527 -334 -1004 -1585 -1949 -3446 -2603 -99 -35 -196 -73 -216
-84 -39 -24 -174 -71 -256 -91 -34 -8 -52 -17 -49 -24 63 -164 181 -751 241
-1199 53 -390 76 -727 76 -1097 -1 -1412 -393 -2415 -1135 -2896 -229 -149
-498 -221 -862 -231 -366 -11 -689 42 -1095 177 -220 74 -375 139 -623 260
-677 332 -1275 756 -2065 1466 -119 106 -228 202 -242 214 l-27 21 -68 -64
c-522 -487 -879 -779 -1308 -1069 -473 -321 -896 -548 -1360 -731 -543 -214
-906 -287 -1368 -274 -435 11 -718 103 -1019 329 -779 588 -1095 1997 -852
3808 32 244 80 522 109 640 13 52 45 196 70 319 26 123 51 235 56 248 19 51
13 58 -58 73 -150 29 -254 63 -738 242 -1340 494 -2480 1265 -2969 2006 -344
522 -433 1066 -259 1592 145 441 497 897 1010 1307 540 431 1294 833 2138
1138 117 43 692 226 818 261 59 17 97 33 97 41 0 7 -22 90 -49 185 -118 418
-228 1057 -276 1603 -35 401 -35 961 0 1311 65 654 252 1211 543 1624 92 131
292 330 412 409 310 206 617 294 1035 294 413 0 805 -84 1300 -280 751 -297
1544 -809 2344 -1513 85 -74 208 -183 275 -241 l121 -107 165 162 c217 211
592 530 886 754 700 529 1483 954 2067 1122 372 106 741 149 1038 120z"/>
<path d="M19780 23895 c-206 -30 -495 -104 -664 -171 -219 -87 -632 -300 -896
-463 -486 -298 -1088 -764 -1465 -1132 l-149 -146 116 -124 c395 -421 919
-1078 1427 -1785 l123 -172 67 -7 c740 -73 1657 -214 2320 -356 128 -27 235
-48 237 -47 15 15 121 496 157 713 179 1069 182 1956 7 2640 -99 387 -228 646
-419 835 -78 78 -112 104 -181 138 -134 66 -216 83 -415 88 -111 2 -203 -2
-265 -11z"/>
<path d="M11850 23884 c-294 -37 -457 -134 -632 -379 -346 -485 -489 -1437
-378 -2522 38 -366 106 -779 159 -968 16 -55 52 -202 81 -327 33 -142 58 -228
65 -228 7 0 113 22 236 50 589 130 1311 243 2142 335 126 14 232 27 237 30 4
2 69 91 145 197 298 416 659 885 939 1222 171 206 226 268 440 504 l139 154
-144 145 c-165 166 -326 310 -554 497 -859 703 -1696 1144 -2402 1267 -114 19
-392 33 -473 23z"/>
<path d="M15878 21243 c-188 -211 -399 -460 -683 -808 -148 -181 -293 -359
-322 -395 -29 -36 -49 -66 -44 -68 6 -2 81 2 168 8 380 27 1711 22 2078 -7
l79 -6 -32 44 c-135 184 -532 685 -716 904 -163 193 -396 455 -406 455 -4 0
-59 -57 -122 -127z"/>
<path d="M15470 19193 c-291 -10 -675 -26 -900 -38 -146 -8 -279 -15 -297 -15
-31 0 -39 -12 -513 -770 -264 -423 -538 -872 -609 -997 -273 -486 -546 -1003
-656 -1240 l-48 -103 103 -217 c245 -518 456 -923 645 -1243 50 -85 142 -245
205 -355 155 -275 280 -474 582 -931 l258 -390 353 -18 c647 -32 760 -36 1192
-42 511 -8 1175 11 1920 54 l119 7 63 90 c163 231 357 546 723 1170 264 451
375 652 673 1220 124 237 257 488 295 559 l71 129 -56 111 c-247 493 -671
1240 -1016 1791 -427 680 -740 1163 -759 1170 -18 6 -756 42 -1118 55 -258 9
-1016 11 -1230 3z m830 -1428 c478 -85 896 -359 1167 -765 289 -433 368 -1000
207 -1502 -177 -555 -624 -992 -1179 -1153 -316 -92 -674 -92 -990 0 -472 137
-868 473 -1085 920 -240 495 -236 1069 11 1558 88 174 167 284 313 436 290
299 650 472 1096 525 76 9 369 -3 460 -19z"/>
<path d="M12980 18984 c-80 -13 -246 -40 -370 -60 -419 -67 -1230 -221 -1246
-237 -11 -11 368 -1054 499 -1372 117 -285 130 -315 136 -315 3 0 45 80 93
178 212 431 752 1366 1042 1805 22 32 35 32 -154 1z"/>
<path d="M18856 18999 c4 -8 51 -79 104 -159 125 -188 263 -413 380 -620 51
-91 137 -237 190 -325 190 -314 385 -686 445 -847 10 -27 21 -48 25 -48 12 0
265 606 377 905 111 297 269 772 259 782 -9 9 -619 139 -901 192 -198 37 -618
102 -750 115 -33 4 -77 9 -99 12 -31 5 -37 3 -30 -7z"/>
<path d="M10320 18429 c-113 -39 -299 -102 -413 -140 -875 -292 -1615 -671
-2152 -1102 -144 -116 -388 -364 -482 -490 -126 -169 -215 -352 -248 -510 -99
-463 277 -1041 1026 -1580 436 -313 1064 -635 1706 -873 123 -46 767 -263 771
-260 1 2 22 72 46 157 166 578 442 1299 837 2191 l79 177 -56 128 c-319 728
-600 1453 -823 2126 -46 136 -83 247 -84 247 -1 0 -94 -32 -207 -71z"/>
<path d="M21422 18251 c-238 -706 -503 -1385 -801 -2045 l-78 -174 74 -158
c289 -616 588 -1367 840 -2111 41 -123 79 -223 84 -223 21 0 356 103 499 153
731 257 1289 525 1795 862 609 405 1011 855 1127 1260 31 108 33 326 4 425
-73 248 -217 464 -490 735 -309 307 -712 578 -1294 869 -421 211 -725 334
-1327 536 l-351 117 -82 -246z"/>
<path d="M19908 14787 c-263 -532 -424 -813 -994 -1736 -18 -30 -32 -56 -31
-57 4 -4 520 76 842 130 416 69 957 175 971 189 16 16 -367 1021 -599 1575
l-64 153 -125 -254z"/>
<path d="M11957 14988 c-3 -7 -42 -98 -87 -203 -152 -352 -275 -670 -386
-1000 -57 -168 -154 -482 -154 -498 0 -20 640 -142 1090 -206 252 -37 721 -93
726 -88 2 1 -58 94 -131 206 -219 331 -496 776 -577 926 -42 77 -149 280 -239
450 -90 171 -177 336 -194 367 -31 59 -39 67 -48 46z"/>
<path d="M20935 12500 c-98 -25 -533 -115 -725 -149 -454 -82 -1101 -172
-1665 -232 l-210 -22 -145 -201 c-384 -532 -896 -1172 -1349 -1686 l-172 -195
153 -149 c154 -149 421 -382 663 -578 406 -328 824 -604 1215 -802 223 -113
348 -167 542 -234 281 -98 519 -143 748 -144 387 -3 617 114 815 412 377 565
510 1618 359 2833 -29 240 -59 427 -114 715 -31 169 -60 374 -60 435 0 8 -14
8 -55 -3z"/>
<path d="M11095 12403 c-3 -26 -25 -129 -47 -228 -105 -472 -184 -967 -225
-1395 -24 -261 -24 -863 0 -1077 85 -753 306 -1248 658 -1476 154 -100 262
-128 509 -128 207 -1 357 19 597 80 663 169 1461 612 2228 1236 162 132 202
167 470 409 l176 158 -73 77 c-444 467 -1004 1149 -1469 1787 l-161 220 -171
13 c-782 56 -1627 177 -2312 331 -77 17 -147 33 -156 36 -13 4 -18 -6 -24 -43z"/>
<path d="M14876 11963 c258 -346 646 -811 1013 -1216 139 -153 145 -158 160
-139 9 11 82 93 162 183 173 195 346 402 530 634 205 258 440 567 435 572 -2
2 -71 -1 -152 -7 -271 -21 -1126 -24 -1569 -6 -220 9 -447 16 -504 16 l-103 0
28 -37z"/>
</g>
</svg>
