<?xml version="1.0" standalone="no"?>
<!DOCTYPE svg PUBLIC "-//W3C//DTD SVG 20010904//EN"
 "http://www.w3.org/TR/2001/REC-SVG-20010904/DTD/svg10.dtd">
<svg version="1.0" xmlns="http://www.w3.org/2000/svg"
 width="4096.000000pt" height="4096.000000pt" viewBox="0 0 4096.000000 4096.000000"
 preserveAspectRatio="xMidYMid meet">
<g transform="translate(0.000000,4096.000000) scale(0.100000,-0.100000)"
fill="#000000" stroke="none">
<path d="M19670 40950 c-1590 -68 -3099 -299 -4575 -701 -2653 -723 -5114
-1964 -7293 -3678 -372 -293 -798 -656 -1198 -1022 -244 -223 -970 -949 -1194
-1194 -1176 -1286 -2124 -2612 -2944 -4115 -149 -273 -461 -896 -601 -1200
-1024 -2224 -1640 -4620 -1815 -7060 -41 -573 -45 -720 -45 -1510 0 -765 4
-896 40 -1435 166 -2439 783 -4865 1806 -7095 130 -285 475 -975 615 -1230
722 -1322 1556 -2526 2524 -3644 327 -377 581 -648 1009 -1077 538 -538 930
-895 1457 -1330 892 -736 1879 -1417 2884 -1991 637 -364 1414 -751 2080
-1035 2243 -959 4558 -1492 7045 -1623 247 -13 1793 -13 2040 0 2488 131 4801
664 7045 1623 666 284 1443 671 2080 1035 1005 574 1992 1255 2884 1991 527
435 919 792 1457 1330 538 538 895 930 1330 1457 736 892 1417 1879 1991 2884
364 637 751 1414 1035 2080 959 2244 1492 4557 1623 7045 13 247 13 1793 0
2040 -121 2306 -585 4450 -1415 6540 -229 576 -423 1008 -721 1605 -402 802
-755 1413 -1245 2150 -611 921 -1237 1720 -2010 2566 -222 244 -949 971 -1193
1193 -1289 1178 -2607 2121 -4116 2945 -255 140 -945 485 -1230 615 -2098 962
-4346 1560 -6655 1770 -223 21 -523 42 -850 62 -227 13 -1584 20 -1845 9z
m-6312 -11667 c21 -38 87 -150 146 -250 58 -101 153 -264 211 -363 58 -99 152
-261 210 -360 58 -99 152 -261 210 -360 58 -99 152 -261 210 -360 58 -99 152
-261 210 -360 58 -99 152 -261 210 -360 58 -99 152 -261 210 -360 58 -99 152
-261 210 -360 58 -99 152 -261 210 -360 58 -99 152 -261 210 -360 58 -99 152
-261 210 -360 58 -99 152 -261 210 -360 58 -99 152 -261 210 -360 58 -99 152
-261 210 -360 58 -99 152 -261 210 -360 58 -99 152 -261 210 -360 58 -99 152
-261 210 -360 58 -99 152 -261 210 -360 58 -99 152 -261 210 -360 58 -99 152
-261 210 -360 58 -99 152 -261 210 -360 58 -99 152 -261 210 -360 58 -99 152
-261 210 -360 58 -99 152 -261 210 -360 -357 612 777 -1332 420 -720 58 -99
152 -261 210 -360 26 -44 394 -676 420 -720 58 -99 152 -261 210 -360 58 -99
152 -261 210 -360 276 -473 323 -553 389 -667 39 -68 73 -123 76 -123 3 0 37
55 76 123 66 114 113 194 389 667 58 99 152 261 210 360 58 99 152 261 210
360 58 99 152 261 210 360 58 99 152 261 210 360 58 99 152 261 210 360 58 99
152 261 210 360 58 99 152 261 210 360 58 99 152 261 210 360 58 99 152 261
210 360 58 99 152 261 210 360 58 99 152 261 210 360 58 99 152 261 210 360
58 99 152 261 210 360 58 99 152 261 210 360 58 99 152 261 210 360 58 99 152
261 210 360 58 99 152 261 210 360 58 99 152 261 210 360 58 99 152 261 210
360 58 99 152 261 210 360 58 99 152 261 210 360 58 99 152 261 210 360 58 99
152 261 210 360 58 99 152 261 210 360 58 99 152 261 210 360 58 99 152 261
210 360 58 99 152 261 210 360 58 99 152 261 210 360 58 99 152 261 210 360
58 99 152 261 210 360 58 99 153 262 211 363 59 100 125 212 146 250 l40 67
2049 0 c1127 0 2049 -3 2049 -7 0 -5 -10 -24 -22 -43 -19 -31 -129 -220 -293
-505 -29 -49 -103 -178 -165 -285 -62 -107 -137 -235 -165 -285 -29 -49 -103
-178 -165 -285 -62 -107 -137 -235 -165 -285 -29 -49 -103 -178 -165 -285 -62
-107 -137 -235 -165 -285 -29 -49 -103 -178 -165 -285 -62 -107 -137 -235
-165 -285 -29 -49 -103 -178 -165 -285 -62 -107 -137 -235 -165 -285 -29 -49
-103 -178 -165 -285 -62 -107 -137 -235 -165 -285 -29 -49 -103 -178 -165
-285 -62 -107 -137 -235 -165 -285 -29 -49 -103 -178 -165 -285 -62 -107 -137
-235 -165 -285 -29 -49 -103 -178 -165 -285 -62 -107 -137 -235 -165 -285 -29
-49 -103 -178 -165 -285 -62 -107 -137 -235 -165 -285 -29 -49 -103 -178 -165
-285 -62 -107 -137 -235 -165 -285 -29 -49 -103 -178 -165 -285 -62 -107 -137
-235 -165 -285 -29 -49 -103 -178 -165 -285 -62 -107 -137 -235 -165 -285 -29
-49 -103 -178 -165 -285 -62 -107 -137 -235 -165 -285 -29 -49 -103 -178 -165
-285 -62 -107 -137 -235 -165 -285 -29 -49 -103 -178 -165 -285 -62 -107 -137
-235 -165 -285 -29 -49 -103 -178 -165 -285 -62 -107 -137 -235 -165 -285 -29
-49 -103 -178 -165 -285 -62 -107 -137 -235 -165 -285 -29 -49 -103 -178 -165
-285 -62 -107 -137 -235 -165 -285 -29 -49 -103 -178 -165 -285 -62 -107 -137
-235 -165 -285 -29 -49 -103 -178 -165 -285 -62 -107 -137 -235 -165 -285 -29
-49 -103 -178 -165 -285 -62 -107 -137 -235 -165 -285 -29 -49 -103 -178 -165
-285 -62 -107 -137 -235 -165 -285 -29 -49 -103 -178 -165 -285 -62 -107 -137
-235 -165 -285 -29 -49 -103 -178 -165 -285 -62 -107 -137 -235 -165 -285 -29
-49 -103 -178 -165 -285 -62 -107 -137 -235 -165 -285 -29 -49 -103 -178 -165
-285 -62 -107 -137 -235 -165 -285 -29 -49 -103 -178 -165 -285 -62 -107 -137
-235 -165 -285 -29 -49 -103 -178 -165 -285 -62 -107 -137 -235 -165 -285 -29
-49 -103 -178 -165 -285 -62 -107 -137 -235 -165 -285 -29 -49 -103 -178 -165
-285 -62 -107 -137 -235 -165 -285 -29 -49 -103 -178 -165 -285 -62 -107 -137
-235 -165 -285 -29 -49 -103 -178 -165 -285 -63 -107 -136 -234 -163 -283 -27
-48 -52 -87 -57 -87 -5 0 -30 39 -57 88 -27 48 -100 175 -163 282 -62 107
-136 236 -165 285 -28 50 -103 178 -165 285 -62 107 -136 236 -165 285 -28 50
-103 178 -165 285 -62 107 -136 236 -165 285 -28 50 -103 178 -165 285 -62
107 -136 236 -165 285 -28 50 -103 178 -165 285 -62 107 -136 236 -165 285
-28 50 -103 178 -165 285 -62 107 -136 236 -165 285 -28 50 -103 178 -165 285
-62 107 -136 236 -165 285 -28 50 -103 178 -165 285 -62 107 -136 236 -165
285 -28 50 -103 178 -165 285 -62 107 -136 236 -165 285 -28 50 -103 178 -165
285 -62 107 -136 236 -165 285 -28 50 -103 178 -165 285 -62 107 -136 236
-165 285 -28 50 -103 178 -165 285 -62 107 -136 236 -165 285 -28 50 -103 178
-165 285 -62 107 -136 236 -165 285 -28 50 -103 178 -165 285 -62 107 -136
236 -165 285 -28 50 -103 178 -165 285 -62 107 -136 236 -165 285 -28 50 -103
178 -165 285 -62 107 -136 236 -165 285 -28 50 -103 178 -165 285 -62 107
-136 236 -165 285 -28 50 -103 178 -165 285 -62 107 -136 236 -165 285 -28 50
-103 178 -165 285 -62 107 -136 236 -165 285 -28 50 -103 178 -165 285 -62
107 -136 236 -165 285 -28 50 -103 178 -165 285 -62 107 -136 236 -165 285
-28 50 -103 178 -165 285 -62 107 -136 236 -165 285 -28 50 -103 178 -165 285
-62 107 -136 236 -165 285 -28 50 -103 178 -165 285 -62 107 -136 236 -165
285 -28 50 -103 178 -165 285 -62 107 -136 236 -165 285 -28 50 -103 178 -165
285 -62 107 -136 236 -165 285 -28 50 -103 178 -165 285 -62 107 -136 236
-165 285 -28 50 -103 178 -165 285 -62 107 -136 236 -165 285 -28 50 -103 178
-165 285 -62 107 -136 236 -165 285 -28 50 -103 178 -165 285 -62 107 -136
236 -165 285 -28 50 -103 178 -165 285 -62 107 -136 236 -165 285 -28 50 -103
178 -165 285 -62 107 -136 236 -165 285 -28 50 -103 178 -165 285 -62 107
-136 236 -165 285 -164 285 -274 474 -293 505 -12 19 -22 38 -22 43 0 4 922 7
2049 7 l2049 0 40 -67z m4855 -128 c60 -104 156 -270 213 -367 57 -98 151
-259 209 -358 58 -99 152 -261 210 -360 58 -99 152 -261 210 -360 58 -99 152
-261 210 -360 58 -99 152 -261 210 -360 58 -99 152 -261 210 -360 58 -99 153
-262 212 -362 58 -101 130 -223 158 -273 29 -49 101 -173 160 -275 59 -102
142 -244 184 -317 42 -73 78 -132 81 -132 3 0 39 59 81 132 42 73 124 214 183
315 58 100 153 263 211 362 58 99 152 261 210 360 58 99 152 260 209 358 56
97 176 303 266 457 90 154 210 360 266 458 57 97 151 258 209 357 58 99 152
261 210 360 58 99 152 260 209 358 57 97 153 263 213 367 l111 190 2071 3
c1139 1 2071 -2 2071 -6 0 -4 -4 -12 -9 -18 -5 -5 -34 -52 -64 -104 -30 -52
-105 -183 -167 -290 -62 -107 -137 -235 -165 -285 -29 -49 -103 -178 -165
-285 -62 -107 -137 -235 -165 -285 -29 -49 -103 -178 -165 -285 -62 -107 -137
-235 -165 -285 -29 -49 -103 -178 -165 -285 -62 -107 -137 -235 -165 -285 -29
-49 -103 -178 -165 -285 -62 -107 -137 -235 -165 -285 -29 -49 -103 -178 -165
-285 -62 -107 -137 -235 -165 -285 -29 -49 -128 -220 -220 -380 -92 -159 -191
-330 -220 -380 -28 -49 -103 -178 -165 -285 -62 -107 -136 -235 -165 -285 -28
-49 -103 -178 -165 -285 -62 -107 -136 -235 -165 -285 -28 -49 -103 -178 -165
-285 -62 -107 -136 -235 -165 -285 -28 -49 -103 -178 -165 -285 -62 -107 -136
-235 -165 -285 -28 -49 -103 -178 -165 -285 -62 -107 -136 -235 -165 -285 -28
-49 -103 -178 -165 -285 -62 -107 -136 -235 -165 -285 -28 -49 -103 -178 -165
-285 -62 -107 -136 -235 -165 -285 -28 -49 -103 -178 -165 -285 -62 -107 -136
-235 -165 -285 -28 -49 -103 -178 -165 -285 -62 -107 -136 -235 -165 -285 -28
-49 -103 -178 -165 -285 -62 -107 -136 -235 -165 -285 -28 -49 -103 -178 -165
-285 -62 -107 -136 -235 -165 -285 -28 -49 -103 -178 -165 -285 -62 -107 -138
-239 -169 -292 -30 -54 -58 -98 -61 -98 -3 0 -31 44 -61 98 -31 53 -107 185
-169 292 -62 107 -137 236 -165 285 -29 50 -103 178 -165 285 -62 107 -137
236 -165 285 -29 50 -103 178 -165 285 -62 107 -137 236 -165 285 -29 50 -103
178 -165 285 -62 107 -137 236 -165 285 -29 50 -103 178 -165 285 -62 107
-137 236 -165 285 -29 50 -103 178 -165 285 -62 107 -137 236 -165 285 -29 50
-103 178 -165 285 -62 107 -137 237 -167 288 -29 50 -77 134 -106 185 -30 50
-105 180 -167 287 -62 107 -136 236 -165 285 -28 50 -103 178 -165 285 -62
107 -136 236 -165 285 -28 50 -103 178 -165 285 -62 107 -136 236 -165 285
-28 50 -103 178 -165 285 -62 107 -136 236 -165 285 -28 50 -103 178 -165 285
-62 107 -136 236 -165 285 -28 50 -103 178 -165 285 -62 107 -136 236 -165
285 -28 50 -103 178 -165 285 -62 107 -136 236 -165 285 -28 50 -103 178 -165
285 -62 107 -136 236 -165 285 -28 50 -103 178 -165 285 -62 107 -136 236
-165 285 -28 50 -103 178 -165 285 -62 107 -136 236 -165 285 -28 50 -103 178
-165 285 -62 107 -136 236 -165 285 -28 50 -103 178 -165 285 -62 107 -137
238 -167 290 -30 52 -59 99 -64 105 -5 5 -9 13 -9 17 0 4 932 7 2071 6 l2071
-3 111 -190z"/>
</g>
</svg>
