<?xml version="1.0" standalone="no"?>
<!DOCTYPE svg PUBLIC "-//W3C//DTD SVG 20010904//EN"
 "http://www.w3.org/TR/2001/REC-SVG-20010904/DTD/svg10.dtd">
<svg version="1.0" xmlns="http://www.w3.org/2000/svg"
 width="4096.000000pt" height="4096.000000pt" viewBox="0 0 4096.000000 4096.000000"
 preserveAspectRatio="xMidYMid meet">
<g transform="translate(0.000000,4096.000000) scale(0.100000,-0.100000)"
fill="#000000" stroke="none">
<path d="M19660 40950 c-1507 -67 -2873 -266 -4275 -625 -2605 -666 -5018
-1824 -7195 -3454 -1257 -941 -2454 -2079 -3463 -3293 -1968 -2368 -3378
-5139 -4116 -8093 -349 -1397 -541 -2747 -601 -4215 -21 -514 -11 -1470 20
-2000 215 -3612 1355 -7049 3334 -10050 778 -1178 1631 -2225 2631 -3225 2719
-2720 6126 -4613 9860 -5475 1265 -293 2525 -458 3879 -511 341 -13 1482 -7
1771 10 1472 86 2660 263 3980 592 4287 1072 8152 3548 10946 7014 2638 3271
4191 7227 4483 11415 36 512 41 684 41 1440 0 756 -5 928 -41 1440 -292 4186
-1843 8140 -4479 11411 -913 1133 -1971 2191 -3104 3104 -3152 2539 -6947
4077 -10966 4444 -227 21 -528 43 -860 62 -237 14 -1582 20 -1845 9z m3215
-8355 c-380 -798 -509 -1635 -394 -2555 195 -1560 1153 -3154 2507 -4172 659
-495 1352 -844 2151 -1083 143 -43 454 -114 697 -160 793 -150 1542 -174 2184
-70 710 116 1311 375 1829 789 150 119 423 389 545 539 48 59 90 107 93 107
15 0 -255 -455 -382 -645 -465 -691 -1017 -1219 -1660 -1586 -993 -567 -2243
-761 -3635 -563 -279 39 -512 82 -622 115 -1340 393 -2497 1144 -3365 2184
-693 831 -1165 1841 -1322 2827 -42 262 -53 394 -58 701 -9 511 30 862 148
1317 125 485 366 1028 630 1417 43 64 711 973 715 973 1 0 -26 -61 -61 -135z
m-5389 -1307 c-120 -238 -175 -358 -266 -588 -236 -595 -394 -1245 -464 -1920
-52 -497 -49 -1183 9 -1688 181 -1580 818 -3134 1849 -4507 513 -685 1179
-1373 1831 -1894 77 -61 156 -124 175 -139 369 -295 1127 -797 1479 -980 429
-223 696 -348 1016 -477 571 -231 937 -352 1425 -474 827 -207 1566 -301 2376
-301 352 0 571 10 883 40 2171 213 4082 1231 5295 2822 64 84 128 167 141 183
l24 30 -23 -70 c-123 -372 -426 -971 -725 -1435 -329 -511 -669 -931 -1110
-1370 -1332 -1329 -3080 -2122 -5131 -2329 -407 -41 -530 -46 -1150 -46 -632
1 -795 8 -1275 56 -439 43 -988 122 -1150 164 -197 52 -883 288 -1155 398
-647 261 -1216 565 -1900 1016 -172 113 -607 427 -665 480 -16 15 -75 62 -130
104 -214 162 -614 526 -890 809 -77 79 -223 229 -325 333 -102 105 -223 235
-269 290 -222 265 -704 955 -935 1338 -743 1233 -1152 2465 -1282 3857 -21
234 -30 905 -15 1151 58 916 259 1758 606 2539 133 299 354 701 531 965 96
144 1323 1865 1329 1865 2 0 -46 -100 -109 -222z m-6530 -2235 c-207 -415
-413 -938 -562 -1431 -463 -1530 -554 -3184 -269 -4879 244 -1446 771 -2903
1530 -4229 477 -831 1051 -1616 1760 -2404 702 -781 1351 -1367 2295 -2075
332 -249 562 -402 1030 -686 461 -280 1011 -572 1570 -834 491 -230 1229 -515
1810 -700 347 -110 507 -155 731 -204 2240 -490 4453 -491 6424 -2 1538 381
2914 1062 4025 1990 447 373 883 818 1239 1264 52 64 95 117 97 117 10 0 -134
-316 -242 -533 -459 -916 -1111 -1846 -1859 -2651 -159 -171 -534 -541 -705
-696 -946 -858 -2054 -1557 -3239 -2046 -1925 -794 -4093 -1073 -6511 -838
-406 39 -793 90 -1220 160 -345 57 -497 90 -687 150 -98 31 -216 67 -263 81
-47 13 -247 78 -445 143 -378 124 -859 312 -1245 484 -230 103 -950 462 -1053
525 -34 21 -134 77 -222 126 -283 156 -731 434 -1020 632 -296 203 -828 611
-1130 868 -82 70 -199 169 -259 219 -414 346 -1008 937 -1471 1466 -265 303
-776 953 -1013 1290 -112 161 -522 809 -647 1025 -72 125 -353 668 -452 875
-1013 2111 -1440 4416 -1208 6520 164 1487 663 2884 1450 4065 83 125 382 515
974 1268 470 598 855 1087 857 1087 2 0 -29 -66 -70 -147z"/>
</g>
</svg>
