<?xml version="1.0" standalone="no"?>
<!DOCTYPE svg PUBLIC "-//W3C//DTD SVG 20010904//EN"
 "http://www.w3.org/TR/2001/REC-SVG-20010904/DTD/svg10.dtd">
<svg version="1.0" xmlns="http://www.w3.org/2000/svg"
 width="3200.000000pt" height="3200.000000pt" viewBox="0 0 3200.000000 3200.000000"
 preserveAspectRatio="xMidYMid meet">
<metadata>
Created by potrace 1.16, written by Peter Selinger 2001-2019
</metadata>
<g transform="translate(0.000000,3200.000000) scale(0.100000,-0.100000)"
fill="#000000" stroke="none">
<path d="M15385 31994 c-33 -2 -154 -8 -270 -14 -3695 -192 -7228 -1687 -9980
-4225 -217 -200 -755 -741 -945 -950 -1547 -1703 -2667 -3610 -3381 -5755
-467 -1404 -729 -2828 -799 -4345 -13 -283 -13 -1126 0 -1410 149 -3252 1234
-6288 3174 -8885 1568 -2098 3676 -3813 6044 -4917 1743 -812 3605 -1301 5507
-1448 429 -33 539 -37 1091 -42 577 -6 872 2 1309 32 2347 165 4607 837 6660
1982 2200 1228 4102 2982 5510 5083 1515 2262 2425 4866 2645 7570 37 459 42
575 47 1150 7 703 -8 1114 -62 1690 -217 2311 -933 4543 -2098 6540 -1856
3181 -4749 5630 -8183 6928 -1355 512 -2816 844 -4259 967 -471 40 -650 47
-1300 50 -357 1 -677 1 -710 -1z m6633 -8164 c79 -5 199 -21 265 -35 795 -160
1390 -786 1502 -1578 13 -88 15 -927 15 -6169 0 -5451 -2 -6079 -16 -6179
-120 -863 -790 -1533 -1653 -1653 -100 -14 -726 -16 -6146 -16 -5420 0 -6046
2 -6146 16 -738 102 -1343 606 -1574 1307 -56 169 -83 312 -96 501 -6 101 -9
2141 -7 6101 3 5688 4 5955 21 6055 57 328 165 594 347 853 80 114 315 351
427 430 304 216 651 342 1003 366 174 12 11886 13 12058 1z"/>
<path d="M10968 21364 c-367 -67 -662 -356 -746 -732 -16 -72 -17 -364 -17
-4632 0 -4268 1 -4560 17 -4632 40 -177 123 -332 247 -461 120 -125 267 -211
441 -259 l85 -23 1595 0 c1480 0 1600 1 1662 17 182 47 331 130 453 253 123
122 206 271 253 453 16 63 17 335 17 4652 0 4317 -1 4589 -17 4652 -47 182
-130 331 -253 453 -120 120 -254 197 -433 248 l-77 22 -1575 2 c-1311 1 -1588
-1 -1652 -13z"/>
<path d="M17789 21365 c-336 -62 -611 -299 -718 -620 -16 -49 -35 -126 -41
-170 -8 -58 -10 -804 -8 -2675 l3 -2595 22 -78 c49 -172 138 -321 259 -438
127 -121 249 -189 424 -238 l95 -26 1510 -3 c1018 -2 1542 0 1609 8 140 15
206 33 331 95 193 94 325 226 420 420 62 127 81 193 95 337 7 68 10 963 8
2648 l-3 2545 -26 95 c-49 176 -113 292 -234 419 -119 126 -267 214 -442 264
l-78 22 -1575 2 c-1304 1 -1588 -1 -1651 -12z"/>
</g>
</svg>
